<svg width="110" height="110" viewBox="0 0 110 110" fill="none" xmlns="http://www.w3.org/2000/svg">
<path d="M75.9375 24.979C77.1916 24.979 78.2083 25.9957 78.2083 27.2498V53.9321C78.2083 54.2448 78.1451 54.5428 78.0308 54.8138C77.5223 53.0061 76.2781 48.8228 75.3698 46.5519C74.4615 44.2811 71.9635 40.3071 70.8281 38.604C70.4496 38.604 69.5792 38.8311 69.125 39.7394C68.6708 40.6478 70.8281 50.3366 71.9635 55.0675L70.2604 56.203H33.9271C32.6729 56.203 31.6562 55.1863 31.6562 53.9321V27.2498C31.6562 25.9957 32.6729 24.979 33.9271 24.979H75.9375Z" fill="#BC5449"/>
<path d="M69.6927 36.3332V31.7915M67.4219 38.604H64.0156M71.9635 38.604H75.3698" stroke="white" stroke-linecap="round" stroke-linejoin="round"/>
<path d="M8.43894 74.4179V14.7606C8.43894 13.5064 9.45563 12.4897 10.7098 12.4897H99.1548C100.409 12.4897 101.426 13.5064 101.426 14.7606V74.4179M8.43894 74.4179H1.56771C1.25417 74.4179 1 74.6721 1 74.9856V76.0731C1 77.3272 2.01669 78.3439 3.27083 78.3439H18.0312M8.43894 74.4179H19.7344M101.426 74.4179H108.297C108.61 74.4179 108.865 74.6721 108.865 74.9856V76.0731C108.865 77.3272 107.848 78.3439 106.594 78.3439H92.3068M101.426 74.4179H91.3571M48.3653 78.3439H68.5661M37.901 78.3439H41.875M43.5781 71.5314H43.0104M47.5521 71.5314H63.4222M21.4375 71.5314H14.0573C12.8031 71.5314 11.7865 70.5147 11.7865 69.2606V18.7345C11.7865 17.4804 12.8031 16.4637 14.0573 16.4637H95.8073C97.0614 16.4637 98.0781 17.4804 98.0781 18.7345V69.2606C98.0781 70.5147 97.0614 71.5314 95.8073 71.5314H90.459M40.7396 74.4179H65.5336M25.5491 68.3652C22.3594 69.1626 22.0936 70.4916 19.7014 75.2761C17.7876 79.1037 15.1927 90.9585 2.70312 91.4012C0.42412 98.1467 6.41057 108.776 9.87982 108.767C9.96443 107.374 19.1698 100.793 24.22 98.9326C29.2703 97.072 38.8393 94.1482 40.6999 90.9585C42.5605 87.7689 48.4082 79.2632 48.674 77.1368C48.9398 75.0103 45.2185 75.0103 43.3579 77.1368C41.4973 79.2632 36.9786 84.3135 36.447 83.7819C35.9154 83.2502 36.7128 80.5922 38.0418 77.9342C39.1051 75.8078 42.0289 72.4409 43.3579 71.0233C43.5351 71.2005 44.1021 71.7144 44.9528 72.3523C46.016 73.1497 47.8766 72.6181 47.6108 70.4917C47.3913 68.7356 44.8152 66.617 43.0262 65.9323M24.22 70.7574C25.3718 68.631 27.9944 64.2187 29.2703 63.5807C30.5462 62.9428 32.3018 62.7069 33.0106 62.7955M33.0106 62.7955C32.0296 63.9999 31.0487 65.6628 30.0677 67.0361C29.0045 68.5246 28.25 70.396 28.25 70.396M33.0106 62.7955C33.3586 62.3681 33.7067 61.9985 34.0548 61.7201C35.3838 60.6569 41.7631 61.7201 43.8895 64.3781C44.7948 65.5098 44.1583 65.8706 43.0262 65.9323M43.0262 65.9323C42.6489 65.7879 42.3067 65.7072 42.0289 65.7072C41.8294 65.7072 41.5709 65.7679 41.2703 65.8751M41.2703 65.8751C40.0494 65.7742 38.8131 65.6061 38.3076 65.7072C37.2444 65.9199 35.9154 68.2767 35.3838 69.4285C36.804 68.3821 39.6491 66.4529 41.2703 65.8751ZM27.1146 65.9965V20.4377H82.75V59.9763M32.7917 54.5002L37.1446 47.1949C37.5316 46.5757 38.394 46.4775 38.9103 46.9938L41.4634 49.5469C41.97 50.0535 42.8135 49.97 43.211 49.3738L47.0345 43.6385C47.5181 42.9131 48.6049 42.9808 48.9948 43.7605L50.5673 46.9056C50.9749 47.7207 52.1282 47.7477 52.5735 46.9526L58.5958 36.1986C58.9869 35.5001 59.9868 35.4851 60.3987 36.1716C60.7743 36.7977 61.6607 36.8534 62.1118 36.2793L67.0809 29.9549C67.2962 29.681 67.6253 29.521 67.9737 29.521H72.1674C72.404 29.521 72.6348 29.4471 72.8273 29.3095L76.5052 26.6825M32.7917 58.4741H57.7708M36.1979 61.3127H60.3987M43.5781 64.1512H54.9323M66.0956 65.838C64.555 61.9413 60.4542 62.77 61.2877 65.6875C62.1213 68.605 62.3671 70.0983 63.7811 72.0568C65.1951 74.0154 68.6587 78.5757 71.7171 82.2358C74.7756 85.896 81.0563 89.2887 84.2739 92.3556L86.4684 99.5717C86.6494 100.167 87.1664 100.604 87.79 100.68C94.0328 101.44 99.0636 101.262 103.717 97.9831C104.451 97.4665 104.517 96.4359 103.921 95.7689C101.01 92.5135 93.2587 83.7325 93.039 82.2754C92.6985 80.0174 91.2399 72.1761 89.1696 68.6177C89.0697 68.446 89.01 68.2565 88.9824 68.0603C88.8495 67.1156 88.3406 65.5303 87.0845 64.5628C86.7775 64.3263 86.5429 63.9924 86.3534 63.656C85.3451 61.8668 81.1236 58.6645 78.8615 56.7965C78.689 56.654 78.5635 56.4704 78.4933 56.259C76.5155 50.3095 72.3739 38.9449 70.8005 38.6567C68.9746 38.3222 67.5118 39.1388 72.2628 54.9154M66.0956 65.838C65.9925 65.0172 65.9216 62.8714 66.4626 60.8544C67.0036 58.8374 70.5548 56.0546 72.2628 54.9154M66.0956 65.838C66.2683 66.2748 66.4649 66.698 66.6802 67.1027M72.2628 54.9154C72.7225 56.4421 73.2404 58.1089 73.8219 59.9283M73.8219 59.9283C73.019 60.5113 71.178 62.3141 70.2363 64.861C69.8398 65.9333 69.2874 66.5556 68.7214 66.8935M73.8219 59.9283C74.1853 61.2349 74.323 62.9942 74.2558 64.7389M66.6802 67.1027C68.3856 70.3087 71.2607 72.3597 72.6583 70.8941C73.6002 69.9063 74.1556 67.3389 74.2558 64.7389M66.6802 67.1027C67.1393 67.2845 67.9432 67.358 68.7214 66.8935M68.7214 66.8935C68.3889 67.5308 68.0035 68.847 69.1224 69.0136C69.9132 69.1314 70.7675 69.0122 71.516 68.5253M74.2558 64.7389C74.116 64.7241 73.6645 65.094 72.9774 66.6916C72.6042 67.5596 72.0913 68.1511 71.516 68.5253M71.516 68.5253C71.7123 68.9984 72.3797 69.7638 73.4787 69.0404M5.54168 37.4689L3.10864 35.1981M5.54168 40.8752H2.13543M5.54168 44.2814L3.10864 46.5522M104.323 37.4689L106.756 35.1981M104.323 40.8752H107.729M104.323 44.2814L106.756 46.5522" stroke="#0048A0" stroke-width="1.5" stroke-linecap="round" stroke-linejoin="round"/>
<path d="M44.1465 49.3906C44.1465 50.3312 43.384 51.0937 42.4434 51.0937C41.5027 51.0937 40.7402 50.3312 40.7402 49.3906C40.7402 48.45 41.5027 47.6875 42.4434 47.6875C43.384 47.6875 44.1465 48.45 44.1465 49.3906Z" fill="white"/>
<path d="M61.1777 35.7656C61.1777 36.7062 60.4152 37.4687 59.4746 37.4687C58.534 37.4687 57.7715 36.7062 57.7715 35.7656C57.7715 34.825 58.534 34.0625 59.4746 34.0625C60.4152 34.0625 61.1777 34.825 61.1777 35.7656Z" fill="white"/>
</svg>
