<svg width="110" height="109" viewBox="0 0 110 109" fill="none" xmlns="http://www.w3.org/2000/svg">
<path d="M48.168 48.3434L48.766 29.8142C48.766 29.8142 48.127 17.6743 60.9058 17.6743C73.6846 17.6743 73.0454 29.8142 73.0454 29.8142V47.7045C69.306 46.105 67.3821 44.9441 66.656 42.593C68.4444 40.7669 69.5834 39.6358 69.8507 37.4815C72.8267 37.2357 73.093 35.6762 72.4065 31.731L71.1286 31.0921L70.8636 29.2371C69.0438 27.8508 66.017 24.7029 66.017 24.7029C61.8328 27.2028 59.3503 27.5259 54.5161 25.3419C54.5161 25.3419 53.5234 28.0687 50.6825 29.2946V31.0921C47.8874 30.4659 48.1267 39.3983 51.9604 37.4815C51.8137 39.4435 52.5326 41.2004 55.1551 43.2319L53.9184 44.5098L48.168 48.3434Z" fill="#BC5449" stroke="#BC5449" stroke-width="1.5" stroke-linecap="round" stroke-linejoin="round"/>
<path d="M58.3507 32.3702C58.3507 33.076 57.7786 33.6481 57.0728 33.6481C56.367 33.6481 55.7949 33.076 55.7949 32.3702C55.7949 31.6644 56.367 31.0923 57.0728 31.0923C57.7786 31.0923 58.3507 31.6644 58.3507 32.3702Z" fill="#0048A0"/>
<path d="M66.0178 32.3702C66.0178 33.076 65.4457 33.6481 64.7399 33.6481C64.0342 33.6481 63.4621 33.076 63.4621 32.3702C63.4621 31.6644 64.0342 31.0923 64.7399 31.0923C65.4457 31.0923 66.0178 31.6644 66.0178 32.3702Z" fill="#0048A0"/>
<path d="M57.2553 8.9628C57.2553 9.25966 57.0146 9.50032 56.7177 9.50032C56.4209 9.50032 56.1802 9.25966 56.1802 8.9628C56.1802 8.66594 56.4209 8.42529 56.7177 8.42529C57.0146 8.42529 57.2553 8.66594 57.2553 8.9628Z" fill="#0048A0"/>
<path d="M52.3224 37.4092L53.0391 37.1882C52.9421 36.8737 52.6515 36.6592 52.3224 36.6592V37.4092ZM51.4849 31.2995V32.0495C51.7027 32.0495 51.9097 31.9549 52.0521 31.7902C52.1946 31.6255 52.2584 31.4071 52.2271 31.1916L51.4849 31.2995ZM69.4916 37.4092V36.6592C69.1626 36.6592 68.8719 36.8737 68.7749 37.1882L69.4916 37.4092ZM70.3292 31.2995L69.587 31.1916C69.5556 31.4071 69.6195 31.6255 69.762 31.7902C69.9044 31.9549 70.1114 32.0495 70.3292 32.0495V31.2995ZM46.511 48.3139C46.1416 48.5014 45.9942 48.9528 46.1817 49.3221C46.3691 49.6915 46.8205 49.8389 47.1899 49.6515L46.511 48.3139ZM56.2879 42.4484C56.404 42.0507 56.1757 41.6343 55.778 41.5183C55.3804 41.4023 54.964 41.6306 54.848 42.0283L56.2879 42.4484ZM77.8035 51.5602C78.1684 51.7562 78.6231 51.6194 78.8192 51.2545C79.0152 50.8897 78.8784 50.4349 78.5135 50.2389L77.8035 51.5602ZM52.0678 29.1493C52.0533 28.7353 51.706 28.4115 51.292 28.426C50.8781 28.4405 50.5542 28.7878 50.5687 29.2018L52.0678 29.1493ZM71.2453 29.2018C71.2598 28.7878 70.936 28.4405 70.522 28.426C70.1081 28.4115 69.7608 28.7353 69.7463 29.1493L71.2453 29.2018ZM78.8055 39.1177C78.6209 38.7469 78.1707 38.5958 77.7999 38.7803C77.429 38.9649 77.278 39.4151 77.4625 39.7859L78.8055 39.1177ZM81.3533 45.9222L80.6819 46.2563C80.8005 46.4947 81.0366 46.6523 81.3023 46.6704C81.568 46.6886 81.8234 46.5644 81.9733 46.3443L81.3533 45.9222ZM96.3567 53.3342L95.6094 53.3974L95.6095 53.3985L96.3567 53.3342ZM96.6743 70.4215L97.3912 70.2012L96.6743 70.4215ZM43.0499 18.3628C43.3195 18.6772 43.793 18.7136 44.1075 18.444C44.422 18.1744 44.4583 17.7009 44.1887 17.3865L43.0499 18.3628ZM43.1176 28.112C43.4255 28.3891 43.8997 28.3642 44.1768 28.0563C44.4539 27.7485 44.429 27.2742 44.1211 26.9971L43.1176 28.112ZM43.608 42.7657L44.358 42.7657C44.358 42.5625 44.2756 42.3681 44.1296 42.2268C43.9836 42.0855 43.7866 42.0094 43.5835 42.0161L43.608 42.7657ZM40.5453 53.7157L41.1488 53.2704L40.5453 53.7157ZM43.608 45.9222L42.858 45.9222C42.858 46.156 42.967 46.3764 43.1529 46.5183L43.608 45.9222ZM43.608 55.9021L44.358 55.9021C44.358 55.6989 44.2756 55.5044 44.1296 55.3631C43.9836 55.2218 43.7866 55.1458 43.5835 55.1525L43.608 55.9021ZM40.5453 67.5437L41.1488 67.0984L40.5453 67.5437ZM43.608 59.7502L42.858 59.7502C42.858 59.984 42.967 60.2044 43.1529 60.3463L43.608 59.7502ZM43.608 30.3205L44.358 30.3205C44.358 30.1173 44.2756 29.9229 44.1296 29.7816C43.9836 29.6403 43.7866 29.5643 43.5835 29.5709L43.608 30.3205ZM40.5453 41.2705L41.1488 40.8252L40.5453 41.2705ZM43.608 33.477L42.858 33.477C42.858 33.7108 42.967 33.9312 43.1529 34.0731L43.608 33.477ZM72.1741 6.81293H72.9241C72.9241 6.61401 72.8451 6.42324 72.7044 6.28259C72.5638 6.14194 72.373 6.06292 72.1741 6.06293L72.1741 6.81293ZM50.0493 6.81327L50.0493 6.06327C49.6351 6.06327 49.2993 6.39906 49.2993 6.81327H50.0493ZM75.3684 86.3237L75.3023 87.0707L75.3684 86.3237ZM86.9379 106.847L86.7733 107.578L86.9379 106.847ZM84.8573 104.309L85.605 104.251L84.8573 104.309ZM108.45 96.7083L109.124 96.3796L108.45 96.7083ZM108.21 99.3129L107.613 98.8595L108.21 99.3129ZM56.7696 2.271L57.5193 2.24927C57.5076 1.84369 57.1754 1.521 56.7696 1.521C56.3639 1.521 56.0317 1.84369 56.02 2.24927L56.7696 2.271ZM54.8627 8.52941L54.2947 8.03964L54.8627 8.52941ZM58.6766 8.52941L59.2446 8.03964H59.2446L58.6766 8.52941ZM56.7696 15.896L56.02 15.9177C56.0317 16.3233 56.3639 16.646 56.7696 16.646C57.1754 16.646 57.5076 16.3233 57.5193 15.9177L56.7696 15.896ZM54.8627 9.63759L54.2947 10.1273L54.8627 9.63759ZM58.6766 9.63759L59.2446 10.1273H59.2446L58.6766 9.63759ZM31.32 42.7242C31.7141 42.5967 31.9303 42.1738 31.8027 41.7797C31.6752 41.3856 31.2524 41.1695 30.8583 41.297L31.32 42.7242ZM15.0264 67.7087C15.11 68.1144 15.5066 68.3756 15.9123 68.292C16.318 68.2085 16.5792 67.8119 16.4956 67.4062L15.0264 67.7087ZM1.56836 77.7762V77.0262C1.15415 77.0262 0.818359 77.362 0.818359 77.7762H1.56836ZM40.1725 77.7762H40.9225C40.9225 77.362 40.5867 77.0262 40.1725 77.0262V77.7762ZM19.3968 92.9828L18.9101 93.5534L19.3968 92.9828ZM22.3441 92.9828L22.8308 93.5534L22.3441 92.9828ZM51.6057 37.6303C51.986 38.8631 52.8919 40.6706 54.3981 42.1815C55.9168 43.705 58.0704 44.9477 60.907 44.9477V43.4477C58.551 43.4477 56.7613 42.4276 55.4604 41.1225C54.1469 39.8049 53.3568 38.2181 53.0391 37.1882L51.6057 37.6303ZM52.3224 36.6592C51.8168 36.6592 51.4241 36.4264 51.1171 36.0097C50.7963 35.5743 50.5877 34.9526 50.531 34.2903C50.474 33.6254 50.5774 33.0072 50.7858 32.5879C50.986 32.1849 51.2257 32.0495 51.4849 32.0495V30.5495C50.4879 30.5495 49.8115 31.1779 49.4425 31.9204C49.0816 32.6467 48.9626 33.556 49.0364 34.4184C49.1106 35.2835 49.3862 36.1893 49.9095 36.8995C50.4465 37.6283 51.2577 38.1592 52.3224 38.1592V36.6592ZM68.7749 37.1882C68.4101 38.3711 67.4292 40.2692 65.7646 41.6633L66.7276 42.8133C68.6552 41.1991 69.7755 39.0334 70.2083 37.6303L68.7749 37.1882ZM65.7646 41.6633C64.5308 42.6966 62.9301 43.4477 60.907 43.4477V44.9477C63.3349 44.9477 65.2672 44.0364 66.7276 42.8133L65.7646 41.6633ZM69.4916 38.1592C70.5563 38.1592 71.3676 37.6283 71.9046 36.8995C72.4279 36.1893 72.7035 35.2835 72.7776 34.4184C72.8515 33.556 72.7325 32.6467 72.3716 31.9204C72.0026 31.1779 71.3262 30.5495 70.3292 30.5495V32.0495C70.5884 32.0495 70.828 32.1849 71.0283 32.5879C71.2366 33.0072 71.3401 33.6254 71.2831 34.2903C71.2263 34.9526 71.0178 35.5743 70.697 36.0097C70.39 36.4264 69.9973 36.6592 69.4916 36.6592V38.1592ZM53.2153 44.911L46.511 48.3139L47.1899 49.6515L53.8943 46.2485L53.2153 44.911ZM55.568 42.2383C54.848 42.0283 54.848 42.0281 54.848 42.028C54.8481 42.028 54.8481 42.0279 54.8481 42.0278C54.8481 42.0277 54.8482 42.0277 54.8482 42.0276C54.8482 42.0276 54.8482 42.0277 54.8481 42.0279C54.8479 42.0284 54.8476 42.0294 54.8472 42.031C54.8462 42.0343 54.8445 42.0398 54.8422 42.0474C54.8375 42.0628 54.8301 42.0866 54.82 42.1181C54.7998 42.181 54.769 42.274 54.7279 42.389C54.6454 42.6198 54.5231 42.935 54.3645 43.2728C54.0291 43.9869 53.5986 44.6528 53.1423 44.9534L53.9673 46.2061C54.7963 45.6601 55.3724 44.6553 55.7222 43.9104C55.9062 43.5186 56.0463 43.1571 56.1404 42.8938C56.1876 42.7616 56.2237 42.653 56.2483 42.5763C56.2607 42.5378 56.2701 42.5073 56.2768 42.4856C56.2801 42.4748 56.2826 42.4662 56.2845 42.46C56.2854 42.4568 56.2862 42.4543 56.2868 42.4524C56.2871 42.4514 56.2873 42.4506 56.2875 42.4499C56.2876 42.4496 56.2877 42.4493 56.2878 42.449C56.2878 42.4489 56.2878 42.4487 56.2879 42.4487C56.2879 42.4485 56.2879 42.4484 55.568 42.2383ZM67.9042 46.2404L77.8035 51.5602L78.5135 50.2389L68.6143 44.9191L67.9042 46.2404ZM66.2461 42.2383C65.5261 42.4484 65.5262 42.4485 65.5262 42.4487C65.5262 42.4487 65.5263 42.4489 65.5263 42.449C65.5264 42.4493 65.5265 42.4496 65.5266 42.4499C65.5268 42.4506 65.527 42.4514 65.5273 42.4524C65.5279 42.4543 65.5286 42.4568 65.5295 42.46C65.5314 42.4662 65.534 42.4748 65.5373 42.4856C65.5439 42.5073 65.5534 42.5378 65.5657 42.5763C65.5904 42.653 65.6264 42.7616 65.6737 42.8938C65.7678 43.1571 65.9078 43.5186 66.0918 43.9104C66.4417 44.6553 67.0178 45.6601 67.8467 46.2061L68.6718 44.9534C68.2154 44.6528 67.785 43.9869 67.4496 43.2728C67.2909 42.935 67.1687 42.6198 67.0862 42.389C67.0451 42.274 67.0142 42.181 66.994 42.1181C66.984 42.0866 66.9766 42.0628 66.9719 42.0474C66.9695 42.0398 66.9679 42.0343 66.9669 42.031C66.9664 42.0294 66.9661 42.0284 66.966 42.0279C66.9659 42.0277 66.9659 42.0276 66.9659 42.0276C66.9659 42.0277 66.9659 42.0277 66.966 42.0278C66.966 42.0279 66.966 42.028 66.966 42.028C66.966 42.0281 66.9661 42.0283 66.2461 42.2383ZM51.4849 31.2995C52.2271 31.1916 52.2271 31.1917 52.2271 31.1917C52.2271 31.1917 52.2271 31.1918 52.2271 31.1918C52.2271 31.1919 52.2271 31.1919 52.2272 31.1919C52.2272 31.192 52.2272 31.192 52.2272 31.192C52.2271 31.1919 52.2271 31.1916 52.227 31.1911C52.2269 31.1901 52.2266 31.1884 52.2263 31.1858C52.2256 31.1807 52.2244 31.1725 52.2229 31.1611C52.2199 31.1385 52.2153 31.1036 52.2096 31.0573C52.1982 30.9646 52.1823 30.8262 52.165 30.6478C52.1302 30.291 52.0897 29.7756 52.0678 29.1493L50.5687 29.2018C50.5919 29.8634 50.6347 30.41 50.672 30.7932C50.6907 30.9849 50.708 31.1359 50.7208 31.2402C50.7272 31.2924 50.7325 31.3329 50.7363 31.361C50.7382 31.3751 50.7397 31.386 50.7408 31.3938C50.7413 31.3977 50.7418 31.4008 50.7421 31.4031C50.7422 31.4042 50.7424 31.4051 50.7425 31.4059C50.7425 31.4062 50.7426 31.4065 50.7426 31.4068C50.7426 31.4069 50.7427 31.4071 50.7427 31.4072C50.7427 31.4072 50.7427 31.4073 50.7427 31.4073C50.7427 31.4074 50.7427 31.4074 51.4849 31.2995ZM70.3292 31.2995C71.0714 31.4074 71.0714 31.4074 71.0714 31.4073C71.0714 31.4073 71.0714 31.4072 71.0714 31.4072C71.0714 31.4071 71.0714 31.4069 71.0714 31.4068C71.0715 31.4065 71.0715 31.4062 71.0716 31.4059C71.0717 31.4051 71.0718 31.4042 71.072 31.4031C71.0723 31.4008 71.0727 31.3977 71.0733 31.3938C71.0744 31.386 71.0759 31.3751 71.0778 31.361C71.0816 31.3329 71.0869 31.2924 71.0933 31.2402C71.1061 31.1359 71.1234 30.9849 71.142 30.7932C71.1794 30.41 71.2222 29.8634 71.2453 29.2018L69.7463 29.1493C69.7243 29.7756 69.6838 30.291 69.6491 30.6478C69.6317 30.8262 69.6158 30.9646 69.6045 31.0573C69.5988 31.1037 69.5942 31.1385 69.5912 31.1611C69.5896 31.1725 69.5885 31.1807 69.5878 31.1858C69.5874 31.1884 69.5872 31.1902 69.587 31.1911C69.587 31.1916 69.5869 31.1919 69.5869 31.192C69.5869 31.192 69.5869 31.192 69.5869 31.1919C69.5869 31.1919 69.5869 31.1919 69.5869 31.1918C69.5869 31.1918 69.5869 31.1917 69.5869 31.1917C69.587 31.1917 69.587 31.1916 70.3292 31.2995ZM53.0826 46.1625C55.8463 48.402 58.186 49.6891 60.6914 49.7106C63.1915 49.7321 65.671 48.4917 68.7134 46.1766L67.8051 44.9829C64.822 47.2528 62.6831 48.2277 60.7043 48.2107C58.7309 48.1937 56.7311 47.1884 54.027 44.9971L53.0826 46.1625ZM63.9908 70.7069C63.9908 72.4099 62.6102 73.7905 60.9072 73.7905V75.2905C63.4387 75.2905 65.4908 73.2383 65.4908 70.7069H63.9908ZM60.9072 73.7905C59.2041 73.7905 57.8236 72.4099 57.8236 70.7069H56.3236C56.3236 73.2383 58.3757 75.2905 60.9072 75.2905V73.7905ZM57.8236 70.7069C57.8236 69.0038 59.2041 67.6232 60.9072 67.6232V66.1232C58.3757 66.1232 56.3236 68.1754 56.3236 70.7069H57.8236ZM60.9072 67.6232C62.6102 67.6232 63.9908 69.0038 63.9908 70.7069H65.4908C65.4908 68.1754 63.4387 66.1232 60.9072 66.1232V67.6232ZM77.4625 39.7859L80.6819 46.2563L82.0248 45.5881L78.8055 39.1177L77.4625 39.7859ZM81.9733 46.3443C82.8924 44.9946 83.0348 43.1045 82.837 41.3553C82.6361 39.5798 82.0664 37.7812 81.3759 36.4893L80.053 37.1964C80.6484 38.3105 81.1656 39.9247 81.3465 41.5239C81.5303 43.1493 81.3492 44.5958 80.7334 45.5L81.9733 46.3443ZM81.3759 36.4893C80.1481 34.1922 78.884 29.6914 78.884 25.9809H77.384C77.384 29.9376 78.7087 34.6813 80.053 37.1964L81.3759 36.4893ZM78.884 25.9809C78.884 24.1858 79.3361 23.0355 79.9955 22.3157C80.6536 21.5974 81.6142 21.2031 82.8472 21.1154L82.7409 19.6192C81.2498 19.7252 79.8804 20.2208 78.8895 21.3024C77.8999 22.3826 77.384 23.9423 77.384 25.9809H78.884ZM82.8472 21.1154C83.0619 21.1002 83.3786 21.2233 83.7776 21.9595C84.1597 22.6643 84.4755 23.6895 84.7623 24.8752C85.0496 26.0628 85.2833 27.2981 85.5419 28.4725C85.7902 29.5998 86.0654 30.6926 86.433 31.4278L87.7746 30.757C87.5033 30.2143 87.2608 29.3033 87.0068 28.1499C86.7632 27.0435 86.5102 25.7209 86.2203 24.5225C85.9299 23.3223 85.578 22.1332 85.0964 21.2446C84.6316 20.3873 83.8883 19.5377 82.7409 19.6192L82.8472 21.1154ZM86.433 31.4278C87.0858 32.7335 89.2566 36.7853 91.3425 41.2785C92.3836 43.5211 93.3954 45.8567 94.1763 47.9909C94.9627 50.1401 95.4938 52.0291 95.6094 53.3974L97.1041 53.2711C96.9708 51.694 96.3805 49.6495 95.585 47.4755C94.784 45.2865 93.7532 42.909 92.7031 40.6469C90.6065 36.1308 88.3997 32.0071 87.7746 30.757L86.433 31.4278ZM95.6095 53.3985C95.6973 54.4193 95.6466 55.583 95.5425 56.8853C95.4416 58.1466 95.2817 59.624 95.1775 61.0769C94.9648 64.0433 94.943 67.3405 95.9574 70.6417L97.3912 70.2012C96.4591 67.1676 96.4651 64.0922 96.6736 61.1842C96.7801 59.6999 96.929 58.3647 97.0377 57.0048C97.1432 55.686 97.2029 54.4201 97.104 53.27L95.6095 53.3985ZM95.9574 70.6417C96.7995 73.3823 99.1816 78.8015 101.62 84.0877C104.068 89.3949 106.602 94.6309 107.775 97.037L109.124 96.3796C107.952 93.9773 105.423 88.7523 102.982 83.4594C100.531 78.1455 98.1976 72.8255 97.3912 70.2012L95.9574 70.6417ZM43.6193 17.8746C44.1887 17.3865 44.1886 17.3863 44.1884 17.3861C44.1883 17.386 44.1881 17.3858 44.188 17.3856C44.1877 17.3852 44.1873 17.3848 44.1869 17.3843C44.186 17.3833 44.1848 17.3819 44.1834 17.3803C44.1807 17.3771 44.1769 17.3728 44.1721 17.3673C44.1626 17.3564 44.1492 17.3412 44.132 17.3219C44.0978 17.2835 44.0486 17.2293 43.9862 17.1626C43.8617 17.0294 43.6835 16.8455 43.4653 16.6388C43.0347 16.231 42.4233 15.7103 41.7443 15.3225C41.0881 14.9476 40.2332 14.6184 39.373 14.8096C38.4411 15.0167 37.771 15.7635 37.3766 16.9465L38.7996 17.4209C39.0967 16.5299 39.4637 16.3261 39.6985 16.2739C40.005 16.2057 40.4465 16.3086 41.0003 16.6249C41.5312 16.9283 42.0434 17.3581 42.4338 17.7279C42.6261 17.91 42.7828 18.0718 42.8905 18.187C42.9443 18.2445 42.9856 18.2902 43.0128 18.3206C43.0264 18.3359 43.0364 18.3473 43.0427 18.3544C43.0458 18.358 43.048 18.3605 43.0492 18.3619C43.0498 18.3626 43.0502 18.3631 43.0503 18.3632C43.0504 18.3633 43.0504 18.3633 43.0503 18.3632C43.0503 18.3632 43.0502 18.3631 43.0502 18.363C43.0501 18.3629 43.0499 18.3628 43.6193 17.8746ZM37.3766 16.9465C36.953 18.2172 37.1848 19.5782 37.67 20.8259C38.1582 22.0811 38.9364 23.3094 39.7352 24.3746C40.5374 25.4442 41.3808 26.376 42.0214 27.0387C42.3424 27.3707 42.6141 27.637 42.8065 27.8211C42.9028 27.9131 42.9793 27.9848 43.0324 28.0339C43.0589 28.0585 43.0796 28.0775 43.094 28.0906C43.1011 28.0971 43.1067 28.1022 43.1107 28.1058C43.1127 28.1076 43.1142 28.109 43.1154 28.1101C43.116 28.1106 43.1164 28.111 43.1168 28.1113C43.117 28.1115 43.1172 28.1117 43.1173 28.1118C43.1175 28.1119 43.1176 28.112 43.6193 27.5546C44.1211 26.9971 44.1212 26.9972 44.1212 26.9973C44.1212 26.9973 44.1213 26.9973 44.1212 26.9973C44.1212 26.9972 44.121 26.9971 44.1208 26.9968C44.1203 26.9964 44.1193 26.9955 44.118 26.9943C44.1153 26.9919 44.111 26.988 44.1051 26.9826C44.0934 26.9719 44.0754 26.9555 44.0517 26.9335C44.0041 26.8894 43.9335 26.8233 43.8434 26.7371C43.6631 26.5647 43.4055 26.3123 43.0999 25.9962C42.4873 25.3625 41.6886 24.4792 40.9352 23.4746C40.1784 22.4655 39.4873 21.3603 39.068 20.2822C38.6458 19.1964 38.5319 18.2241 38.7996 17.4209L37.3766 16.9465ZM43.5835 42.0161C41.6795 42.0784 40.2332 42.5887 39.2238 43.4746C38.2092 44.3651 37.721 45.5605 37.5941 46.8212C37.3449 49.296 38.4634 52.1572 39.9418 54.161L41.1488 53.2704C39.8096 51.4552 38.8865 48.9584 39.0865 46.9715C39.1842 46.0013 39.5434 45.1898 40.2133 44.602C40.8883 44.0095 41.9635 43.5699 43.6326 43.5153L43.5835 42.0161ZM39.9418 54.161C40.8175 55.348 42.242 55.8897 43.6128 55.9542C44.9816 56.0186 46.4328 55.6165 47.4501 54.7425C48.511 53.8311 49.0496 52.4397 48.5517 50.7525C48.0742 49.1347 46.6667 47.3138 44.0631 45.326L43.1529 46.5183C45.6534 48.4273 46.7675 50.0064 47.113 51.1771C47.4381 52.2786 47.1013 53.0646 46.4726 53.6047C45.8004 54.1823 44.748 54.5059 43.6833 54.4559C42.6206 54.4059 41.6818 53.9928 41.1488 53.2704L39.9418 54.161ZM44.358 45.9222L44.358 42.7657L42.858 42.7657L42.858 45.9222L44.358 45.9222ZM43.5835 55.1525C41.6627 55.2153 40.2085 55.7781 39.2006 56.7402C38.1954 57.6998 37.718 58.9768 37.5936 60.3087C37.348 62.9366 38.4506 65.9678 39.9418 67.989L41.1488 67.0984C39.8225 65.3007 38.8834 62.628 39.0871 60.4483C39.1872 59.3764 39.5572 58.4736 40.2364 57.8252C40.913 57.1793 41.9803 56.7057 43.6326 56.6517L43.5835 55.1525ZM39.9418 67.989C40.8175 69.176 42.242 69.7177 43.6128 69.7822C44.9816 69.8466 46.4328 69.4445 47.4501 68.5705C48.511 67.6591 49.0496 66.2677 48.5517 64.5805C48.0742 62.9627 46.6667 61.1418 44.0631 59.154L43.1529 60.3463C45.6534 62.2553 46.7675 63.8344 47.113 65.0051C47.4381 66.1066 47.1013 66.8926 46.4726 67.4327C45.8004 68.0103 44.748 68.3339 43.6833 68.2839C42.6206 68.2339 41.6818 67.8208 41.1488 67.0984L39.9418 67.989ZM44.358 59.7502L44.358 55.9021L42.858 55.902L42.858 59.7502L44.358 59.7502ZM43.5835 29.5709C41.6795 29.6332 40.2332 30.1435 39.2238 31.0294C38.2092 31.9199 37.721 33.1153 37.5941 34.376C37.3449 36.8508 38.4634 39.712 39.9418 41.7158L41.1488 40.8252C39.8096 39.01 38.8865 36.5132 39.0865 34.5263C39.1842 33.5561 39.5434 32.7446 40.2133 32.1568C40.8883 31.5643 41.9635 31.1247 43.6326 31.0701L43.5835 29.5709ZM39.9418 41.7158C40.8175 42.9028 42.242 43.4445 43.6128 43.509C44.9816 43.5734 46.4328 43.1713 47.4501 42.2973C48.511 41.3859 49.0496 39.9945 48.5517 38.3073C48.0742 36.6895 46.6667 34.8686 44.0631 32.8808L43.1529 34.0731C45.6534 35.9821 46.7675 37.5612 47.113 38.7319C47.4381 39.8334 47.1013 40.6194 46.4726 41.1595C45.8004 41.7371 44.748 42.0607 43.6833 42.0107C42.6206 41.9607 41.6818 41.5477 41.1488 40.8252L39.9418 41.7158ZM44.358 33.477L44.358 30.3205L42.858 30.3205L42.858 33.477L44.358 33.477ZM46.3849 7.56266H75.3684V6.06266H46.3849V7.56266ZM44.3693 30.3203V9.57826H42.8693V30.3203H44.3693ZM46.3849 77.2077C45.2718 77.2077 44.3693 76.3053 44.3693 75.1921H42.8693C42.8693 77.1338 44.4433 78.7077 46.3849 78.7077V77.2077ZM77.384 75.1921C77.384 76.3053 76.4816 77.2077 75.3684 77.2077V78.7077C77.31 78.7077 78.884 77.1338 78.884 75.1921H77.384ZM75.3684 7.56266C75.3418 7.56266 75.3693 7.55011 75.462 7.62298C75.5571 7.69788 75.6796 7.83187 75.8197 8.04327C76.0999 8.46619 76.3734 9.07991 76.6145 9.78288C77.1008 11.2003 77.384 12.7626 77.384 13.4119H78.884C78.884 12.5338 78.5481 10.7965 78.0334 9.29614C77.774 8.54023 77.4516 7.79052 77.0701 7.21474C76.8793 6.92679 76.6544 6.65261 76.3895 6.44417C76.1221 6.23371 75.7768 6.06266 75.3684 6.06266V7.56266ZM46.3849 6.06266C44.4433 6.06266 42.8693 7.63665 42.8693 9.57826H44.3693C44.3693 8.46508 45.2718 7.56266 46.3849 7.56266V6.06266ZM71.4241 6.81293V7.5043H72.9241V6.81293H71.4241ZM72.1741 6.06293L50.0493 6.06327L50.0493 7.56327L72.1741 7.56293L72.1741 6.06293ZM49.2993 6.81327V7.5043H50.7993V6.81327H49.2993ZM54.1977 12.4027H68.0257V10.9027H54.1977V12.4027ZM49.2993 7.5043C49.2993 10.2096 51.4924 12.4027 54.1977 12.4027V10.9027C52.3208 10.9027 50.7993 9.38118 50.7993 7.5043H49.2993ZM71.4241 7.5043C71.4241 9.38119 69.9026 10.9027 68.0257 10.9027V12.4027C70.731 12.4027 72.9241 10.2096 72.9241 7.5043H71.4241ZM107.613 98.8595C104.1 103.489 101.097 105.726 97.9837 106.62C94.849 107.519 91.4755 107.099 87.1025 106.115L86.7733 107.578C91.1687 108.567 94.8692 109.074 98.3976 108.061C101.947 107.042 105.196 104.526 108.808 99.7662L107.613 98.8595ZM59.0044 78.5753C60.2796 79.4542 62.8046 81.4777 65.6738 83.2695C68.5621 85.0732 71.9943 86.778 75.3023 87.0707L75.4345 85.5766C72.4922 85.3162 69.3094 83.7714 66.4683 81.9972C63.608 80.211 61.289 78.3281 59.8557 77.3402L59.0044 78.5753ZM75.3023 87.0707C76.4577 87.173 77.5594 87.8163 78.5951 88.9303C79.6312 90.0445 80.5535 91.581 81.3377 93.3441C82.9062 96.8708 83.8586 101.158 84.1096 104.367L85.605 104.251C85.3423 100.891 84.3539 96.4345 82.7082 92.7346C81.8853 90.8844 80.8822 89.1871 79.6936 87.9089C78.5048 86.6303 77.0828 85.7224 75.4345 85.5766L75.3023 87.0707ZM87.1025 106.115C86.2912 105.932 85.6773 105.175 85.605 104.251L84.1096 104.367C84.2255 105.85 85.2293 107.231 86.7733 107.578L87.1025 106.115ZM107.775 97.037C108.069 97.6384 108.005 98.343 107.613 98.8595L108.808 99.7662C109.554 98.7827 109.656 97.4708 109.124 96.3796L107.775 97.037ZM75.3684 77.2077H59.4301V78.7077H75.3684V77.2077ZM44.3693 75.1921V69.0387H42.8693V75.1921H44.3693ZM77.384 13.4119V75.1921H78.884V13.4119H77.384ZM59.4301 77.2077H46.3849V78.7077H59.4301V77.2077ZM58.6559 8.96293C58.6559 9.674 59.2323 10.2504 59.9434 10.2504V8.75044C60.0607 8.75044 60.1559 8.84558 60.1559 8.96293H58.6559ZM59.9434 10.2504H67.4685V8.75044H59.9434V10.2504ZM67.4685 10.2504C68.1796 10.2504 68.756 9.674 68.756 8.96293H67.256C67.256 8.84558 67.3512 8.75044 67.4685 8.75044V10.2504ZM68.756 8.96293C68.756 8.25186 68.1796 7.67542 67.4685 7.67542V9.17542C67.3512 9.17542 67.256 9.08028 67.256 8.96293H68.756ZM67.4685 7.67542H59.9434V9.17542H67.4685V7.67542ZM59.9434 7.67542C59.2323 7.67542 58.6559 8.25186 58.6559 8.96293H60.1559C60.1559 9.08028 60.0607 9.17542 59.9434 9.17542V7.67542ZM56.02 2.24927C55.9719 3.90693 55.8866 4.92858 55.6477 5.74969C55.4185 6.53712 55.0348 7.18131 54.2947 8.03964L55.4307 9.01917C56.2575 8.06033 56.7793 7.22931 57.0879 6.16882C57.3867 5.14202 57.4715 3.94305 57.5193 2.29272L56.02 2.24927ZM56.02 2.29272C56.0678 3.94305 56.1525 5.14202 56.4514 6.16883C56.76 7.22931 57.2818 8.06033 58.1086 9.01917L59.2446 8.03964C58.5045 7.18131 58.1208 6.53712 57.8916 5.74969C57.6527 4.92858 57.5674 3.90693 57.5193 2.24927L56.02 2.29272ZM57.5193 15.8743C57.4715 14.2239 57.3867 13.025 57.0879 11.9982C56.7793 10.9377 56.2575 10.1067 55.4307 9.14782L54.2947 10.1273C55.0348 10.9857 55.4185 11.6299 55.6477 12.4173C55.8866 13.2384 55.9719 14.2601 56.02 15.9177L57.5193 15.8743ZM57.5193 15.9177C57.5674 14.2601 57.6527 13.2384 57.8916 12.4173C58.1208 11.6299 58.5045 10.9857 59.2446 10.1273L58.1086 9.14782C57.2818 10.1067 56.76 10.9377 56.4514 11.9982C56.1525 13.025 56.0678 14.2239 56.02 15.8743L57.5193 15.9177ZM58.1086 9.01917C58.1399 9.0555 58.1399 9.11149 58.1086 9.14782L59.2446 10.1273C59.7612 9.52817 59.7612 8.63882 59.2446 8.03964L58.1086 9.01917ZM54.2947 8.03964C53.7781 8.63882 53.7781 9.52817 54.2947 10.1273L55.4307 9.14782C55.3994 9.11149 55.3994 9.0555 55.4307 9.01917L54.2947 8.03964ZM30.8583 41.297C27.5299 42.3738 22.7714 44.9722 19.2391 49.2997C15.6848 53.6543 13.3872 59.7468 15.0264 67.7087L16.4956 67.4062C14.9557 59.9264 17.1052 54.2863 20.4012 50.2482C23.7193 46.1831 28.2144 43.7289 31.32 42.7242L30.8583 41.297ZM0.818359 77.7762V103.891H2.31836V77.7762H0.818359ZM3.83919 106.912H37.9017V105.412H3.83919V106.912ZM40.9225 103.891V77.7762H39.4225V103.891H40.9225ZM19.8835 92.4122L2.05507 77.2056L1.08165 78.3468L18.9101 93.5534L19.8835 92.4122ZM22.8308 93.5534L40.6592 78.3468L39.6858 77.2056L21.8574 92.4122L22.8308 93.5534ZM18.9101 93.5534C20.0395 94.5167 21.7014 94.5167 22.8308 93.5534L21.8574 92.4122C21.2888 92.8972 20.4521 92.8972 19.8835 92.4122L18.9101 93.5534ZM37.9017 106.912C39.57 106.912 40.9225 105.559 40.9225 103.891H39.4225C39.4225 104.731 38.7416 105.412 37.9017 105.412V106.912ZM0.818359 103.891C0.818359 105.559 2.17083 106.912 3.83919 106.912V105.412C2.99926 105.412 2.31836 104.731 2.31836 103.891H0.818359ZM40.1725 77.0262H1.56836V78.5262H40.1725V77.0262Z" fill="#0048A0"/>
<path d="M14.4838 18.7042C14.7067 17.9873 15.6774 17.9873 15.9003 18.7042L16.864 21.8036C16.9637 22.1242 17.2496 22.3413 17.5722 22.3413H20.6907C21.4121 22.3413 21.7121 23.3059 21.1285 23.749L18.6055 25.6645C18.3445 25.8627 18.2353 26.2139 18.335 26.5346L19.2987 29.6339C19.5216 30.3509 18.7363 30.947 18.1527 30.5039L15.6298 28.5884C15.3688 28.3903 15.0153 28.3903 14.7543 28.5884L12.2314 30.5039C11.6478 30.947 10.8625 30.3509 11.0855 29.6339L12.0491 26.5346C12.1488 26.2139 12.0396 25.8627 11.7786 25.6645L9.25566 23.749C8.67204 23.3059 8.97199 22.3413 9.69338 22.3413H12.8119C13.1345 22.3413 13.4204 22.1242 13.5201 21.8036L14.4838 18.7042Z" fill="#BC5449"/>
<path d="M66.4672 91.1265C66.5888 90.7354 67.1182 90.7354 67.2398 91.1265L67.7655 92.817C67.8198 92.9919 67.9758 93.1103 68.1518 93.1103H69.8528C70.2463 93.1103 70.4099 93.6365 70.0915 93.8782L68.7154 94.923C68.573 95.0311 68.5135 95.2227 68.5678 95.3976L69.0935 97.0881C69.2151 97.4792 68.7868 97.8044 68.4684 97.5627L67.0923 96.5179C66.9499 96.4098 66.7571 96.4098 66.6148 96.5179L65.2386 97.5627C64.9203 97.8044 64.4919 97.4792 64.6135 97.0881L65.1392 95.3976C65.1936 95.2227 65.134 95.0311 64.9916 94.923L63.6155 93.8782C63.2971 93.6365 63.4607 93.1103 63.8542 93.1103H65.5552C65.7312 93.1103 65.8872 92.9919 65.9416 92.817L66.4672 91.1265Z" fill="#BC5449"/>
<path d="M100.53 23.0015C100.651 22.6104 101.181 22.6104 101.302 23.0015L101.828 24.692C101.882 24.8669 102.038 24.9853 102.214 24.9853H103.915C104.309 24.9853 104.472 25.5115 104.154 25.7532L102.778 26.798C102.636 26.9061 102.576 27.0977 102.63 27.2726L103.156 28.9631C103.278 29.3542 102.849 29.6794 102.531 29.4377L101.155 28.3929C101.012 28.2848 100.82 28.2848 100.677 28.3929L99.3011 29.4377C98.9828 29.6794 98.5545 29.3542 98.676 28.9631L99.2017 27.2726C99.2561 27.0977 99.1965 26.9061 99.0541 26.798L97.678 25.7532C97.3596 25.5115 97.5232 24.9853 97.9167 24.9853H99.6177C99.7937 24.9853 99.9497 24.8669 100.004 24.692L100.53 23.0015Z" fill="#BC5449"/>
</svg>
