<svg width="123" height="122" viewBox="0 0 123 122" fill="none" xmlns="http://www.w3.org/2000/svg">
<path d="M23.1309 27.1753H67.2161" stroke="#BC5449" stroke-width="2.18605" stroke-linecap="round" stroke-linejoin="round"/>
<path d="M23.1309 38.1973H67.2161" stroke="#BC5449" stroke-width="2.18605" stroke-linecap="round" stroke-linejoin="round"/>
<path d="M23.1309 49.2183H67.2161" stroke="#BC5449" stroke-width="2.18605" stroke-linecap="round" stroke-linejoin="round"/>
<path d="M23.1309 32.6865H67.2161" stroke="#BC5449" stroke-width="2.18605" stroke-linecap="round" stroke-linejoin="round"/>
<path d="M23.1309 43.7075H67.2161" stroke="#BC5449" stroke-width="2.18605" stroke-linecap="round" stroke-linejoin="round"/>
<path d="M23.1309 54.729H67.2161" stroke="#BC5449" stroke-width="2.18605" stroke-linecap="round" stroke-linejoin="round"/>
<path d="M93.5828 29.9534C96.7627 26.1749 97.2386 24.0568 97.4212 17.3853C97.6038 24.0568 98.0797 26.1749 101.26 29.9534C101.583 30.3373 101.583 30.9019 101.26 31.2858C98.0797 35.0643 97.6038 37.1825 97.4212 43.854C97.2386 37.1825 96.7627 35.0643 93.5828 31.2858C93.2597 30.9019 93.2597 30.3373 93.5828 29.9534Z" fill="#BC5449" stroke="#BC5449" stroke-linecap="round" stroke-linejoin="round"/>
<path d="M14.8652 11.9629H22.4424C23.9641 11.9629 25.1977 10.7293 25.1977 9.20753V1.63037M14.8652 11.9629V78.8379C14.8652 80.3596 16.0988 81.5932 17.6206 81.5932H67.8027M14.8652 11.9629L22.0467 4.78141M25.1977 1.63037H71.3495C72.8712 1.63037 74.1048 2.86397 74.1048 4.3857V61.7494M25.1977 1.63037L22.0467 4.78141M74.1048 61.7494C77.2539 59.6825 81.4617 58.0554 84.8894 58.4545C87.139 58.7164 89.9443 59.5064 92.7532 60.4846M74.1048 61.7494C70.7416 63.957 68.586 66.6663 69.8781 67.9449M69.8781 67.9449C70.6522 67.5619 71.8753 67.5344 73.1724 67.9449M69.8781 67.9449C69.2221 68.2695 68.7596 68.7855 68.795 69.8194M73.1724 67.9449C74.2807 68.2957 75.443 68.9663 76.4253 70.0081M73.1724 67.9449L92.7532 60.4846M76.4253 70.0081C76.7704 70.3742 77.0932 70.7861 77.3837 71.246C77.7052 71.7551 78.1352 72.3131 78.6347 72.8943M76.4253 70.0081L84.8894 66.8889M84.8894 66.8889C85.5672 67.1996 86.5341 67.7183 87.4656 68.3576M84.8894 66.8889L97.4316 62.2668M78.6347 72.8943C80.2132 71.107 84.1892 67.6974 87.4656 68.3576M78.6347 72.8943C79.584 73.9986 80.7848 75.1862 81.9706 76.2786M87.4656 68.3576C88.8266 69.2916 90.1121 70.4829 90.3102 71.6587C90.3697 72.0122 90.315 72.4324 90.1754 72.8943M81.9706 76.2786C82.6454 76.9003 83.3155 77.4912 83.9315 78.0184C84.9293 78.8721 86.4185 78.7624 87.2392 77.7373C88.4467 76.2293 89.7345 74.3535 90.1754 72.8943M81.9706 76.2786C82.9927 74.3245 86.0646 70.9118 90.1754 72.8943M97.4316 62.2668L112.833 56.5911C113.748 56.2537 114.213 55.2344 113.867 54.3219C113.523 53.4142 112.508 52.958 111.601 53.3036L92.7532 60.4846M97.4316 62.2668C99.9467 63.2994 102.18 64.3278 103.654 65.0566C109.908 67.5324 109.908 83.2126 112.41 89.4021C114.124 93.6412 118.2 98.1826 120.821 100.696C121.527 101.374 121.827 102.383 121.555 103.323L117.822 116.256C117.203 118.399 114.106 118.867 112.699 117.137C110.615 114.574 107.716 111.45 104.071 108.383C95.7309 101.369 93.229 100.543 86.9743 96.4169C80.8153 92.3537 79.5081 88.2904 73.8955 79.8931M68.795 69.8194L66.5423 71.6587H69.2082M68.795 69.8194C68.8117 70.3063 68.9388 70.908 69.2082 71.6587M69.2082 71.6587C69.821 73.3669 71.1704 75.8464 73.6309 79.4987C73.7202 79.6312 73.8084 79.7627 73.8955 79.8931M60.2402 85.3748H11.3185C9.79675 85.3748 8.56315 84.1412 8.56315 82.6195V9.19287M60.2402 85.3748H65.0474C66.5691 85.3748 67.8027 84.1412 67.8027 82.6195V81.5932M60.2402 85.3748V86.4007C60.2402 87.9224 59.0066 89.156 57.4849 89.156H4.38619C2.86446 89.156 1.63086 87.9224 1.63086 86.4007V11.9482C1.63086 10.4265 2.86446 9.19287 4.38619 9.19287H8.56315M67.8027 81.5932H71.3495C72.4974 81.5932 73.4814 80.8912 73.8955 79.8931M8.56315 9.19287V7.53674C8.56315 6.01502 9.79675 4.78141 11.3185 4.78141H22.0467M47.0791 69.8696L48.2164 73.2817C48.2498 73.382 48.379 73.4089 48.4496 73.3302L53.9823 67.1618C54.0667 67.0677 54.2226 67.1274 54.2226 67.2538V74.7583C54.2226 74.8895 54.3886 74.9464 54.4692 74.8429L58.41 69.7762C58.4619 69.7095 58.5611 69.7048 58.6191 69.7663L61.3976 72.7181C61.4587 72.783 61.5644 72.7737 61.6132 72.6991L64.548 68.2164M64.548 72.2137L67.1725 71.5835M106.245 9.82307C106.177 12.3299 106.012 13.3367 105.053 14.6381C104.678 15.1474 104.678 15.8425 105.053 16.3518C106.012 17.6532 106.177 18.66 106.245 21.1668C106.314 18.66 106.479 17.6532 107.437 16.3518C107.812 15.8425 107.812 15.1474 107.437 14.6381C106.479 13.3367 106.314 12.3299 106.245 9.82307Z" stroke="#0048A0" stroke-width="1.5" stroke-linecap="round" stroke-linejoin="round"/>
</svg>
