<svg width="108" height="108" viewBox="0 0 108 108" fill="none" xmlns="http://www.w3.org/2000/svg">
<rect x="44.625" y="44.625" width="37.875" height="46.875" rx="1.25" fill="white" stroke="#0048A0" stroke-width="1.5"/>
<path d="M72 58.25C72 57.1454 72.8954 56.25 74 56.25H74.5C75.6046 56.25 76.5 57.1454 76.5 58.25V84.375H72V58.25Z" fill="#BC5449"/>
<path d="M65.25 58.25C65.25 57.1454 66.1454 56.25 67.25 56.25H67.75C68.8546 56.25 69.75 57.1454 69.75 58.25V84.375H65.25V58.25Z" fill="#BC5449"/>
<path d="M58.5 58.25C58.5 57.1454 59.3954 56.25 60.5 56.25H61C62.1046 56.25 63 57.1454 63 58.25V84.375H58.5V58.25Z" fill="#BC5449"/>
<path d="M52.875 84.375H77.0625" stroke="#0048A0" stroke-width="1.5" stroke-linecap="round" stroke-linejoin="round"/>
<rect x="14.25" y="31.125" width="37.875" height="46.875" rx="1.25" fill="white" stroke="#0048A0" stroke-width="1.5"/>
<rect x="5.25" y="6.375" width="94.125" height="46.875" rx="1.25" fill="white" stroke="#0048A0" stroke-width="1.5"/>
<path d="M65.4233 26.5318C65.1688 27.5905 65.2967 28.7901 66.109 29.5153L69.014 32.1091C70.001 32.9903 71.5479 32.8367 72.1426 31.6548C73.129 29.694 73.6864 27.4672 73.6864 25.1062C73.6864 22.4559 72.984 19.9745 71.7607 17.8489C71.0823 16.6702 69.476 16.6442 68.5617 17.651L65.8293 20.6601C65.153 21.4049 65.0981 22.5009 65.3686 23.4699C65.5136 23.9896 65.5913 24.5386 65.5913 25.1062C65.5913 25.5977 65.533 26.0752 65.4233 26.5318Z" fill="#BC5449"/>
<path d="M62.651 31.4702C63.3304 31.2272 63.9807 31.292 64.3848 31.6275L68.0504 34.671C68.6708 35.1861 68.5915 36.0093 68.0654 36.3489C65.8408 37.7849 63.1582 38.625 60.2663 38.625C52.5292 38.625 46.3125 32.624 46.3125 25.2884C46.3125 18.9968 50.8808 13.691 57.0663 12.304C57.6618 12.1705 58.2909 12.6491 58.2909 13.4143V17.9168C58.2909 18.4857 57.8616 19.0663 57.1532 19.4147C54.9492 20.499 53.4177 22.7125 53.4177 25.2884C53.4177 28.9594 56.5145 31.881 60.2663 31.881C61.1032 31.881 61.907 31.7362 62.651 31.4702ZM63.9876 19.0768C63.7658 19.304 63.3624 19.3892 62.9315 19.2138C62.4832 19.0313 62.2416 18.673 62.2416 18.368V13.4143C62.2416 12.6489 62.8706 12.1704 63.466 12.3039C64.8656 12.6177 66.1835 13.1329 67.3848 13.8154C67.9192 14.119 68.0555 14.9109 67.5089 15.4706L63.9876 19.0768Z" fill="white" stroke="#0048A0" stroke-width="1.5"/>
<rect x="69.375" y="31.125" width="37.875" height="46.875" rx="1.25" fill="white" stroke="#0048A0" stroke-width="1.5"/>
<path d="M15.1596 99.8317C19.0311 95.4919 29.3381 83.7859 29.6303 81.8433C30.0831 78.8333 32.0227 68.38 34.7758 63.6361C34.9086 63.4073 34.9879 63.1547 35.0247 62.8931C35.2014 61.6337 35.8781 59.5204 37.5485 58.2305C37.9567 57.9152 38.2687 57.4701 38.5208 57.0216C39.8616 54.6364 45.4753 50.3674 48.4834 47.8772C48.7128 47.6873 48.8796 47.4424 48.9731 47.1607C51.6031 39.2293 57.1106 24.079 59.2029 23.6948C61.6309 23.2489 63.5762 24.3375 57.2584 45.3694C59.5296 46.8882 64.2519 50.5979 64.9713 53.2868C65.6907 55.9757 65.5965 58.8363 65.4594 59.9305C67.508 54.7357 72.9613 55.8405 71.8529 59.7299C70.7444 63.6192 70.4175 65.6099 68.5372 68.2209C66.6569 70.8319 62.0511 76.9112 57.9839 81.7906C53.9168 86.67 45.5648 91.1928 41.286 95.2814L38.3677 104.901C38.127 105.695 37.4396 106.278 36.6103 106.379C28.3088 107.391 21.6188 107.155 15.4304 102.784C14.4553 102.095 14.3663 100.721 15.1596 99.8317Z" fill="white"/>
<path d="M65.4594 59.9305C67.508 54.7357 72.9613 55.8405 71.8529 59.7299C70.7444 63.6192 70.4175 65.6099 68.5372 68.2209C66.6569 70.8319 62.0511 76.9112 57.9839 81.7906C53.9168 86.67 45.5648 91.1928 41.286 95.2814L38.3677 104.901C38.127 105.695 37.4396 106.278 36.6103 106.379C28.3088 107.391 21.6188 107.155 15.4304 102.784C14.4553 102.095 14.3663 100.721 15.1596 99.8317C19.0311 95.4919 29.3381 83.7859 29.6303 81.8433C30.0831 78.8333 32.0227 68.38 34.7758 63.6361C34.9086 63.4073 34.9879 63.1547 35.0247 62.893C35.2014 61.6337 35.8781 59.5204 37.5485 58.2305C37.9567 57.9152 38.2687 57.4701 38.5207 57.0216C39.8616 54.6364 45.4753 50.3674 48.4834 47.8772C48.7128 47.6873 48.8796 47.4424 48.9731 47.1607C51.6031 39.2293 57.1106 24.079 59.2029 23.6948C61.6309 23.2489 63.5762 24.3375 57.2584 45.3694M65.4594 59.9305C65.5965 58.8363 65.6907 55.9757 64.9713 53.2868C64.2519 50.5979 59.5296 46.8882 57.2584 45.3694M65.4594 59.9305C65.2298 60.5128 64.9683 61.0769 64.682 61.6165M57.2584 45.3694C56.647 47.4047 55.9582 49.6267 55.185 52.0522M55.185 52.0522C56.2526 52.8294 58.7009 55.2328 59.9532 58.628C60.4804 60.0575 61.215 60.8872 61.9676 61.3376M55.185 52.0522C54.7018 53.794 54.5186 56.1394 54.608 58.4653M64.682 61.6165C62.4141 65.8904 58.5908 68.6247 56.7324 66.6709C55.4798 65.354 54.7413 61.9314 54.608 58.4653M64.682 61.6165C64.0714 61.8588 63.0025 61.9569 61.9676 61.3376M61.9676 61.3376C62.4098 62.1871 62.9222 63.9418 61.4343 64.164C60.3828 64.321 59.2467 64.162 58.2514 63.513M54.608 58.4653C54.794 58.4456 55.3943 58.9386 56.308 61.0685C56.8044 62.2256 57.4863 63.0141 58.2514 63.513M58.2514 63.513C57.9904 64.1437 57.1029 65.164 55.6414 64.1997" stroke="#0048A0" stroke-width="1.5" stroke-linecap="round" stroke-linejoin="round"/>
<path d="M50.625 28.6875L39.9841 18.0466C39.2339 17.2964 38.2165 16.875 37.1556 16.875H23.625M69.75 27L74.7659 21.9841C75.5161 21.2339 76.5335 20.8125 77.5943 20.8125H88.875M65.25 15.1875L67.4534 12.9841C68.2036 12.2339 69.221 11.8125 70.2818 11.8125H79.875M24.75 40.5H9.5625M36.5625 45H9.5625M100.125 37.125H75.9375M102.375 40.5H75.9375M102.375 72H75.9375M93.375 44.4375H75.9375" stroke="#0048A0" stroke-width="1.5" stroke-linecap="round" stroke-linejoin="round"/>
<rect x="78.75" y="49.5" width="20.25" height="16.875" rx="2" fill="#BC5449"/>
<path d="M17.4375 73.6875L23.8123 67.8031C24.314 67.34 25.106 67.4122 25.5157 67.9584C25.9766 68.573 26.8984 68.573 27.3593 67.9584L28.732 66.1282C29.3232 65.3399 30.4493 65.1969 31.2187 65.8125C31.9882 66.4281 33.1143 66.2851 33.7055 65.4968L34.3125 64.6875" stroke="#0048A0" stroke-width="1.5" stroke-linecap="round" stroke-linejoin="round"/>
</svg>
