<svg width="20" height="20" viewBox="0 0 20 20" fill="none" xmlns="http://www.w3.org/2000/svg">
<path d="M19.1054 13.3266L17.3867 11.6078C16.8743 11.0996 16.1828 10.8131 15.4611 10.81C14.7395 10.8069 14.0455 11.0876 13.5289 11.5914C13.2532 11.8687 12.8895 12.0412 12.5004 12.0792C12.1113 12.1173 11.721 12.0186 11.3968 11.8C10.1173 10.9461 9.0181 9.84899 8.16169 8.57111C7.94698 8.24331 7.85181 7.85152 7.89222 7.46175C7.93264 7.07197 8.10616 6.70804 8.38357 6.43127C8.88286 5.91414 9.15989 5.2221 9.15536 4.50328C9.15084 3.78447 8.86511 3.09598 8.35935 2.58517L6.6406 0.866424C6.12603 0.353618 5.42918 0.0656738 4.70271 0.0656738C3.97624 0.0656738 3.27939 0.353618 2.76482 0.866424L2.27029 1.36174C-0.30784 3.93986 -0.114871 9.36017 5.24919 14.7211C8.48357 17.9563 11.739 19.311 14.3789 19.311C15.156 19.3368 15.9304 19.2078 16.6571 18.9313C17.3838 18.6549 18.0483 18.2366 18.6117 17.7008L19.107 17.2055C19.6207 16.6907 19.9091 15.993 19.9089 15.2657C19.9086 14.5384 19.6196 13.841 19.1054 13.3266ZM18.0008 16.1008L17.5054 16.5961C15.4742 18.6274 10.9906 18.2563 6.35232 13.6172C1.71404 8.97814 1.34216 4.49142 3.37341 2.46017L3.86482 1.96564C4.08607 1.74519 4.38568 1.6214 4.69802 1.6214C5.01036 1.6214 5.30997 1.74519 5.53122 1.96564L7.24997 3.68439C7.46721 3.90272 7.59052 4.1973 7.59358 4.50527C7.59665 4.81325 7.47923 5.11022 7.26638 5.33283C6.73847 5.8641 6.40917 6.56066 6.33365 7.3058C6.25812 8.05094 6.44096 8.79941 6.85154 9.4258C7.82462 10.882 9.07594 12.1314 10.5336 13.1024C11.1581 13.513 11.9046 13.6969 12.6484 13.6234C13.3922 13.5499 14.0882 13.2234 14.6203 12.6985C14.8425 12.4831 15.1403 12.3635 15.4497 12.3654C15.7591 12.3673 16.0555 12.4905 16.275 12.7086L17.9937 14.4274C18.1045 14.5365 18.1926 14.6665 18.2529 14.8099C18.3133 14.9532 18.3447 15.1071 18.3453 15.2626C18.346 15.4181 18.3159 15.5723 18.2567 15.7161C18.1976 15.86 18.1106 15.9907 18.0008 16.1008Z" fill="white"/>
</svg>
