<svg width="18" height="22" viewBox="0 0 18 22" fill="none" xmlns="http://www.w3.org/2000/svg">
<path d="M13.2956 11.5197C13.1684 11.4691 13.0324 11.444 12.8955 11.446C12.7586 11.4479 12.6234 11.4768 12.4977 11.5309C12.3719 11.5851 12.2581 11.6635 12.1626 11.7617C12.0672 11.8598 11.992 11.9758 11.9414 12.103C11.8908 12.2303 11.8657 12.3662 11.8677 12.5031C11.8696 12.64 11.8984 12.7752 11.9526 12.9009C12.0068 13.0267 12.0852 13.1405 12.1834 13.236C12.2815 13.3314 12.3975 13.4066 12.5247 13.4572C14.0456 14.0614 14.9935 14.9989 14.9935 15.9051C14.9935 17.3843 12.431 19.0301 8.74349 19.0301C5.05599 19.0301 2.49349 17.3843 2.49349 15.9051C2.49349 14.9989 3.44141 14.0614 4.96224 13.4572C5.21917 13.355 5.42497 13.1549 5.53436 12.9009C5.64376 12.647 5.64779 12.36 5.54557 12.103C5.44335 11.8461 5.24326 11.6403 4.9893 11.5309C4.73535 11.4215 4.44834 11.4175 4.19141 11.5197C1.82682 12.4572 0.410156 14.0926 0.410156 15.9051C0.410156 18.8218 4.06641 21.1135 8.74349 21.1135C13.4206 21.1135 17.0768 18.8218 17.0768 15.9051C17.0768 14.0926 15.6602 12.4572 13.2956 11.5197ZM7.70182 8.46763V15.9051C7.70182 16.1814 7.81157 16.4463 8.00692 16.6417C8.20227 16.837 8.46722 16.9468 8.74349 16.9468C9.01976 16.9468 9.28471 16.837 9.48006 16.6417C9.67541 16.4463 9.78516 16.1814 9.78516 15.9051V8.46763C10.7671 8.21409 11.6229 7.61114 12.192 6.77178C12.7612 5.93243 13.0047 4.91431 12.8769 3.90825C12.7492 2.90219 12.2588 1.97728 11.4979 1.30687C10.737 0.636469 9.75763 0.266602 8.74349 0.266602C7.72935 0.266602 6.75002 0.636469 5.98908 1.30687C5.22814 1.97728 4.73782 2.90219 4.61003 3.90825C4.48225 4.91431 4.72577 5.93243 5.29495 6.77178C5.86413 7.61114 6.71989 8.21409 7.70182 8.46763ZM8.74349 2.36346C9.15553 2.36346 9.55833 2.48564 9.90093 2.71456C10.2435 2.94348 10.5106 3.26886 10.6682 3.64954C10.8259 4.03021 10.8672 4.4491 10.7868 4.85323C10.7064 5.25736 10.508 5.62857 10.2166 5.91993C9.92527 6.21129 9.55406 6.40971 9.14993 6.4901C8.7458 6.57048 8.32691 6.52922 7.94623 6.37154C7.56555 6.21386 7.24018 5.94683 7.01126 5.60423C6.78234 5.26163 6.66016 4.85884 6.66016 4.44679C6.66016 3.89426 6.87965 3.36435 7.27035 2.97365C7.66105 2.58295 8.19096 2.36346 8.74349 2.36346Z" fill="white"/>
</svg>
