<svg width="26" height="26" viewBox="0 0 26 26" fill="none" xmlns="http://www.w3.org/2000/svg">
<path d="M2.88911 0.23999C1.35716 0.23999 0.111328 1.48582 0.111328 3.01777V22.4622C0.111328 23.9942 1.35716 25.24 2.88911 25.24H12.0851H15.9642H22.3335C23.8655 25.24 25.1113 23.9942 25.1113 22.4622V3.01777C25.1113 1.48582 23.8655 0.23999 22.3335 0.23999H2.88911ZM2.88911 3.01777H22.3335L22.3363 22.4622H15.9642V16.9555H19.2492L19.7375 13.1713H15.9859V10.7597C15.9859 9.66529 16.2909 8.92597 17.8604 8.92597H19.8433V5.54869C18.878 5.45008 17.9089 5.40214 16.938 5.40492C14.0575 5.40492 12.0851 7.16304 12.0851 10.3908V13.1767H8.82986V16.9609H12.0851V22.4622H2.88911V3.01777Z" fill="white"/>
</svg>
