<svg width="140" height="140" viewBox="0 0 140 140" fill="none" xmlns="http://www.w3.org/2000/svg">
<g filter="url(#filter0_d_8_5623)">
<circle cx="70" cy="66" r="50" fill="white"/>
</g>
<path d="M70 52.25C71.6576 52.25 73.2473 52.9085 74.4194 54.0806C75.5915 55.2527 76.25 56.8424 76.25 58.5C76.25 59.3208 76.0883 60.1335 75.7742 60.8918C75.4602 61.6501 74.9998 62.3391 74.4194 62.9194C73.8391 63.4998 73.1501 63.9602 72.3918 64.2742C71.6335 64.5883 70.8208 64.75 70 64.75C68.3424 64.75 66.7527 64.0915 65.5806 62.9194C64.4085 61.7473 63.75 60.1576 63.75 58.5C63.75 56.8424 64.4085 55.2527 65.5806 54.0806C66.7527 52.9085 68.3424 52.25 70 52.25ZM70 41C74.6413 41 79.0925 42.8437 82.3744 46.1256C85.6563 49.4075 87.5 53.8587 87.5 58.5C87.5 71.625 70 91 70 91C70 91 52.5 71.625 52.5 58.5C52.5 53.8587 54.3437 49.4075 57.6256 46.1256C60.9075 42.8437 65.3587 41 70 41ZM70 46C66.6848 46 63.5054 47.317 61.1612 49.6612C58.817 52.0054 57.5 55.1848 57.5 58.5C57.5 61 57.5 66 70 82.775C82.5 66 82.5 61 82.5 58.5C82.5 55.1848 81.183 52.0054 78.8388 49.6612C76.4946 47.317 73.3152 46 70 46Z" fill="#0048A0"/>
<defs>
<filter id="filter0_d_8_5623" x="0" y="0" width="140" height="140" filterUnits="userSpaceOnUse" color-interpolation-filters="sRGB">
<feFlood flood-opacity="0" result="BackgroundImageFix"/>
<feColorMatrix in="SourceAlpha" type="matrix" values="0 0 0 0 0 0 0 0 0 0 0 0 0 0 0 0 0 0 127 0" result="hardAlpha"/>
<feOffset dy="4"/>
<feGaussianBlur stdDeviation="10"/>
<feComposite in2="hardAlpha" operator="out"/>
<feColorMatrix type="matrix" values="0 0 0 0 0 0 0 0 0 0 0 0 0 0 0 0 0 0 0.1 0"/>
<feBlend mode="normal" in2="BackgroundImageFix" result="effect1_dropShadow_8_5623"/>
<feBlend mode="normal" in="SourceGraphic" in2="effect1_dropShadow_8_5623" result="shape"/>
</filter>
</defs>
</svg>
