<svg width="140" height="140" viewBox="0 0 140 140" fill="none" xmlns="http://www.w3.org/2000/svg">
<g filter="url(#filter0_d_8_5629)">
<circle cx="70" cy="66" r="50" fill="white"/>
</g>
<path d="M52.5 46H62.5L67.5 58.5L61.25 62.25C63.9274 67.6788 68.3212 72.0726 73.75 74.75L77.5 68.5L90 73.5V83.5C90 84.8261 89.4732 86.0979 88.5355 87.0355C87.5979 87.9732 86.3261 88.5 85 88.5C75.2482 87.9074 66.0504 83.7662 59.1421 76.8579C52.2338 69.9496 48.0926 60.7518 47.5 51C47.5 49.6739 48.0268 48.4021 48.9645 47.4645C49.9021 46.5268 51.1739 46 52.5 46Z" stroke="#0048A0" stroke-width="4" stroke-linecap="round" stroke-linejoin="round"/>
<defs>
<filter id="filter0_d_8_5629" x="0" y="0" width="140" height="140" filterUnits="userSpaceOnUse" color-interpolation-filters="sRGB">
<feFlood flood-opacity="0" result="BackgroundImageFix"/>
<feColorMatrix in="SourceAlpha" type="matrix" values="0 0 0 0 0 0 0 0 0 0 0 0 0 0 0 0 0 0 127 0" result="hardAlpha"/>
<feOffset dy="4"/>
<feGaussianBlur stdDeviation="10"/>
<feComposite in2="hardAlpha" operator="out"/>
<feColorMatrix type="matrix" values="0 0 0 0 0 0 0 0 0 0 0 0 0 0 0 0 0 0 0.1 0"/>
<feBlend mode="normal" in2="BackgroundImageFix" result="effect1_dropShadow_8_5629"/>
<feBlend mode="normal" in="SourceGraphic" in2="effect1_dropShadow_8_5629" result="shape"/>
</filter>
</defs>
</svg>
