<svg width="31" height="31" viewBox="0 0 31 31" fill="none" xmlns="http://www.w3.org/2000/svg">
<path d="M10.9457 15.74C10.9457 13.4388 12.8106 11.5728 15.1118 11.5728C17.413 11.5728 19.279 13.4388 19.279 15.74C19.279 18.0412 17.413 19.9072 15.1118 19.9072C12.8106 19.9072 10.9457 18.0412 10.9457 15.74ZM8.69296 15.74C8.69296 19.2852 11.5667 22.1589 15.1118 22.1589C18.657 22.1589 21.5307 19.2852 21.5307 15.74C21.5307 12.1948 18.657 9.32113 15.1118 9.32113C11.5667 9.32113 8.69296 12.1948 8.69296 15.74ZM20.2847 9.06668C20.2847 9.89466 20.9562 10.5671 21.7852 10.5671C22.6131 10.5671 23.2856 9.89466 23.2856 9.06668C23.2856 8.2387 22.6142 7.56722 21.7852 7.56722C20.9562 7.56722 20.2847 8.2387 20.2847 9.06668ZM10.0611 25.9151C8.8424 25.8596 8.18001 25.6566 7.73977 25.485C7.15614 25.2578 6.74013 24.9872 6.30191 24.5499C5.86469 24.1127 5.59307 23.6967 5.36689 23.1131C5.19524 22.6728 4.99228 22.0105 4.93675 20.7917C4.87616 19.474 4.86404 19.0782 4.86404 15.74C4.86404 12.4018 4.87717 12.007 4.93675 10.6883C4.99228 9.46956 5.19625 8.80819 5.36689 8.36693C5.59408 7.78331 5.86469 7.36729 6.30191 6.92907C6.73912 6.49186 7.15513 6.22024 7.73977 5.99406C8.18001 5.8224 8.8424 5.61945 10.0611 5.56391C11.3788 5.50333 11.7747 5.49121 15.1118 5.49121C18.45 5.49121 18.8448 5.50434 20.1635 5.56391C21.3823 5.61945 22.0437 5.82341 22.4849 5.99406C23.0685 6.22024 23.4845 6.49186 23.9228 6.92907C24.36 7.36628 24.6306 7.78331 24.8578 8.36693C25.0294 8.80718 25.2324 9.46956 25.2879 10.6883C25.3485 12.007 25.3606 12.4018 25.3606 15.74C25.3606 19.0772 25.3485 19.473 25.2879 20.7917C25.2324 22.0105 25.0284 22.6728 24.8578 23.1131C24.6306 23.6967 24.36 24.1127 23.9228 24.5499C23.4856 24.9872 23.0685 25.2578 22.4849 25.485C22.0447 25.6566 21.3823 25.8596 20.1635 25.9151C18.8458 25.9757 18.45 25.9878 15.1118 25.9878C11.7747 25.9878 11.3788 25.9757 10.0611 25.9151ZM9.95815 3.31523C8.62732 3.37582 7.71856 3.58685 6.9239 3.89583C6.10198 4.21491 5.40526 4.64303 4.70956 5.33773C4.01486 6.03243 3.58673 6.72914 3.26766 7.55208C2.95868 8.34674 2.74764 9.2555 2.68706 10.5863C2.62546 11.9192 2.61133 12.3453 2.61133 15.74C2.61133 19.1347 2.62546 19.5608 2.68706 20.8937C2.74764 22.2245 2.95868 23.1333 3.26766 23.9279C3.58673 24.7499 4.01385 25.4476 4.70956 26.1423C5.40425 26.837 6.10097 27.2641 6.9239 27.5842C7.71957 27.8932 8.62732 28.1042 9.95815 28.1648C11.292 28.2254 11.7171 28.2405 15.1118 28.2405C18.5076 28.2405 18.9327 28.2264 20.2655 28.1648C21.5963 28.1042 22.5051 27.8932 23.2998 27.5842C24.1217 27.2641 24.8184 26.837 25.5141 26.1423C26.2088 25.4476 26.6359 24.7499 26.956 23.9279C27.265 23.1333 27.477 22.2245 27.5366 20.8937C27.5972 19.5598 27.6113 19.1347 27.6113 15.74C27.6113 12.3453 27.5972 11.9192 27.5366 10.5863C27.476 9.2555 27.265 8.34674 26.956 7.55208C26.6359 6.73015 26.2088 6.03344 25.5141 5.33773C24.8194 4.64303 24.1217 4.21491 23.3008 3.89583C22.5051 3.58685 21.5963 3.37481 20.2665 3.31523C18.9337 3.25465 18.5076 3.2395 15.1128 3.2395C11.7171 3.2395 11.292 3.25364 9.95815 3.31523Z" fill="white"/>
</svg>
