<svg width="22" height="24" viewBox="0 0 22 24" fill="none" xmlns="http://www.w3.org/2000/svg">
<path d="M6.05216 7.08986C5.74284 7.08986 5.44619 7.21102 5.22747 7.42668C5.00874 7.64235 4.88587 7.93485 4.88587 8.23985C4.88587 8.54484 5.00874 8.83735 5.22747 9.05301C5.44619 9.26867 5.74284 9.38983 6.05216 9.38983H7.21845C7.52777 9.38983 7.82442 9.26867 8.04314 9.05301C8.26186 8.83735 8.38474 8.54484 8.38474 8.23985C8.38474 7.93485 8.26186 7.64235 8.04314 7.42668C7.82442 7.21102 7.52777 7.08986 7.21845 7.08986H6.05216ZM11.8836 20.8897H3.71958C3.41026 20.8897 3.11361 20.7685 2.89488 20.5529C2.67616 20.3372 2.55329 20.0447 2.55329 19.7397V3.6399C2.55329 3.33491 2.67616 3.0424 2.89488 2.82674C3.11361 2.61107 3.41026 2.48991 3.71958 2.48991H9.55103V5.93987C9.55103 6.85486 9.91966 7.73237 10.5758 8.37936C11.232 9.02636 12.1219 9.38983 13.0499 9.38983H16.5488V11.6898C16.5488 11.9948 16.6717 12.2873 16.8904 12.503C17.1091 12.7186 17.4057 12.8398 17.7151 12.8398C18.0244 12.8398 18.321 12.7186 18.5398 12.503C18.7585 12.2873 18.8814 11.9948 18.8814 11.6898V8.23985C18.8814 8.23985 18.8814 8.23985 18.8814 8.17085C18.8692 8.0652 18.8458 7.96113 18.8114 7.86035V7.75685C18.7553 7.63861 18.6805 7.52992 18.5898 7.43486L11.592 0.534937C11.4956 0.445487 11.3854 0.371732 11.2655 0.31644C11.2269 0.309781 11.1874 0.309781 11.1488 0.31644C11.0354 0.256644 10.9136 0.214001 10.7873 0.189941H3.71958C2.79162 0.189941 1.90167 0.553418 1.2455 1.20041C0.589333 1.8474 0.220703 2.72492 0.220703 3.6399V19.7397C0.220703 20.6547 0.589333 21.5322 1.2455 22.1792C1.90167 22.8262 2.79162 23.1897 3.71958 23.1897H11.8836C12.1929 23.1897 12.4896 23.0685 12.7083 22.8529C12.927 22.6372 13.0499 22.3447 13.0499 22.0397C13.0499 21.7347 12.927 21.4422 12.7083 21.2265C12.4896 21.0109 12.1929 20.8897 11.8836 20.8897ZM11.8836 4.1114L14.9043 7.08986H13.0499C12.7406 7.08986 12.4439 6.9687 12.2252 6.75304C12.0065 6.53737 11.8836 6.24487 11.8836 5.93987V4.1114ZM13.0499 11.6898H6.05216C5.74284 11.6898 5.44619 11.811 5.22747 12.0266C5.00874 12.2423 4.88587 12.5348 4.88587 12.8398C4.88587 13.1448 5.00874 13.4373 5.22747 13.653C5.44619 13.8686 5.74284 13.9898 6.05216 13.9898H13.0499C13.3592 13.9898 13.6559 13.8686 13.8746 13.653C14.0933 13.4373 14.2162 13.1448 14.2162 12.8398C14.2162 12.5348 14.0933 12.2423 13.8746 12.0266C13.6559 11.811 13.3592 11.6898 13.0499 11.6898ZM20.8757 18.9232C20.7673 18.8154 20.6383 18.7299 20.4962 18.6715C20.3541 18.6131 20.2016 18.5831 20.0476 18.5831C19.8937 18.5831 19.7412 18.6131 19.5991 18.6715C19.457 18.7299 19.328 18.8154 19.2196 18.9232L18.8814 19.2682V16.2898C18.8814 15.9848 18.7585 15.6923 18.5398 15.4766C18.321 15.2609 18.0244 15.1398 17.7151 15.1398C17.4057 15.1398 17.1091 15.2609 16.8904 15.4766C16.6717 15.6923 16.5488 15.9848 16.5488 16.2898V19.2682L16.2106 18.9232C15.9909 18.7067 15.6931 18.585 15.3825 18.585C15.0719 18.585 14.774 18.7067 14.5544 18.9232C14.3348 19.1398 14.2114 19.4335 14.2114 19.7397C14.2114 20.046 14.3348 20.3397 14.5544 20.5562L16.887 22.8562C16.9979 22.9609 17.1287 23.0429 17.2719 23.0977C17.4115 23.1585 17.5624 23.1899 17.7151 23.1899C17.8677 23.1899 18.0187 23.1585 18.1583 23.0977C18.3014 23.0429 18.4322 22.9609 18.5431 22.8562L20.8757 20.5562C20.985 20.4493 21.0718 20.3221 21.131 20.182C21.1902 20.0418 21.2207 19.8915 21.2207 19.7397C21.2207 19.5879 21.1902 19.4376 21.131 19.2975C21.0718 19.1573 20.985 19.0301 20.8757 18.9232ZM10.7173 18.5897C11.0266 18.5897 11.3233 18.4686 11.542 18.2529C11.7607 18.0372 11.8836 17.7447 11.8836 17.4397C11.8836 17.1347 11.7607 16.8422 11.542 16.6266C11.3233 16.4109 11.0266 16.2898 10.7173 16.2898H6.05216C5.74284 16.2898 5.44619 16.4109 5.22747 16.6266C5.00874 16.8422 4.88587 17.1347 4.88587 17.4397C4.88587 17.7447 5.00874 18.0372 5.22747 18.2529C5.44619 18.4686 5.74284 18.5897 6.05216 18.5897H10.7173Z" fill="white"/>
</svg>
