<svg width="32" height="33" viewBox="0 0 32 33" fill="none" xmlns="http://www.w3.org/2000/svg">
<path d="M18.6668 18H18.1668V18.5V29.3333H13.8335V18.5V18H13.3335H9.8335V13.6667H13.3335H13.8335V13.1667V9.43333C13.8335 7.51334 14.4389 6.08602 15.419 5.13786C16.4021 4.1868 17.8151 3.66667 19.5242 3.66667C20.8625 3.66667 22.1413 3.74477 22.8335 3.80471V7.33333H21.3335C19.9394 7.33333 19.0582 7.67028 18.5854 8.37239C18.3601 8.70704 18.2602 9.08096 18.2128 9.43826C18.1668 9.78555 18.1668 10.1517 18.1668 10.4834V10.5V13.1667V13.6667H18.6668H22.6931L21.6098 18H18.6668Z" fill="#EBF4FF" stroke="#333333"/>
</svg>
