<svg width="33" height="33" viewBox="0 0 33 33" fill="none" xmlns="http://www.w3.org/2000/svg">
<path d="M28.1376 4.98021L28.3425 5.17205L31.4667 3.3216C31.5412 3.23948 31.6381 3.18099 31.7454 3.15338C31.8532 3.12567 31.9667 3.13029 32.0719 3.16667C32.177 3.20304 32.2691 3.26957 32.3367 3.35794C32.4041 3.44608 32.4441 3.55206 32.4519 3.66274C32.5675 5.40353 32.4801 6.67196 32.1019 7.74208C31.7635 8.69269 31.2117 9.43659 30.4669 10.1957L30.3238 10.3416V10.5459V11.5677C30.3238 21.6731 22.1438 29.8667 12.0505 29.8667H11.9481C8.56058 29.8667 5.0759 29.8562 1.75091 27.6382L1.75083 27.6381C1.6496 27.5706 1.57278 27.4723 1.53174 27.3578C1.4907 27.2432 1.48762 27.1185 1.52296 27.0021C1.55829 26.8857 1.63017 26.7837 1.72795 26.7113C1.82573 26.6389 1.94422 26.5999 2.0659 26.6H2.06651C5.8175 26.6 9.01692 25.0004 10.9101 23.6601L11.6439 23.1406L10.8154 22.7913C6.84931 21.1192 4.10363 18.6208 2.7462 15.5289L2.74614 15.5287C1.19704 12.0031 1.50395 7.82253 3.68927 3.44771L3.68955 3.44715C3.73878 3.34829 3.81583 3.26597 3.91121 3.2103C4.0066 3.15464 4.11618 3.12807 4.22646 3.13385C4.33675 3.13963 4.44295 3.17751 4.532 3.24283C4.62104 3.30816 4.68906 3.39808 4.72769 3.50155L4.72808 3.50259C5.69459 6.07401 9.23346 11.112 15.8712 11.6247L16.4097 11.6662V11.1261V10.1875V10.1872C16.4092 9.26139 16.591 8.34455 16.9448 7.48902C17.2986 6.63349 17.8175 5.85602 18.4718 5.20101C19.126 4.546 19.9029 4.02627 20.758 3.6715C21.6132 3.31673 22.5298 3.13386 23.4556 3.13334L23.4558 3.13334C25.1944 3.13165 26.8684 3.79202 28.1376 4.98021Z" fill="#EBF4FF" stroke="#333333"/>
</svg>
