<svg width="32" height="33" viewBox="0 0 32 33" fill="none" xmlns="http://www.w3.org/2000/svg">
<path d="M17.3727 3.668L17.3705 3.668L14.6292 3.66667L14.6282 3.66667C13.6604 3.66433 12.6925 3.67539 11.725 3.69983C11.725 3.69983 11.7249 3.69984 11.7249 3.69984C11.7249 3.69984 11.7248 3.69984 11.7248 3.69984L11.4704 3.7064L10.5276 3.74612C10.5272 3.74613 10.5268 3.74615 10.5264 3.74617C9.15387 3.81071 8.2414 4.02551 7.4473 4.33294L7.44323 4.33452L7.44323 4.3345C6.62195 4.64424 5.8782 5.12957 5.26395 5.75657L5.25633 5.76434L5.25625 5.76426C4.62846 6.37778 4.14277 7.12145 3.83336 7.94291L3.83175 7.94719L3.83173 7.94718C3.52424 8.74142 3.30942 9.65408 3.24492 11.027C3.22891 11.3819 3.2157 11.6754 3.20513 11.9712L3.20513 11.9714L3.1959 12.227C3.17279 13.1936 3.16308 14.1605 3.16678 15.1274L3.16679 15.1293L3.16678 17.8707V17.8719C3.16443 18.8402 3.17549 19.8085 3.19995 20.7765C3.19995 20.7765 3.19995 20.7765 3.19996 20.7766C3.19996 20.7766 3.19996 20.7767 3.19996 20.7767L3.20654 21.0322C3.21827 21.3462 3.2315 21.66 3.24623 21.9739L17.3727 3.668ZM17.3727 3.668C18.34 3.66428 19.3074 3.67399 20.2745 3.69712L20.5301 3.70634L20.5303 3.70635M17.3727 3.668L20.5303 3.70635M20.5303 3.70635C20.8174 3.7166 21.101 3.72935 21.4434 3.74474L21.474 3.74611C21.4741 3.74612 21.4743 3.74613 21.4745 3.74614C22.8462 3.81064 23.76 4.02549 24.5527 4.33285L24.5539 4.3333M20.5303 3.70635L24.5539 4.3333M24.5539 4.3333C25.3716 4.648 26.0529 5.0692 26.7426 5.75889L26.7426 5.7589M24.5539 4.3333L26.7426 5.7589M26.7426 5.7589L26.7457 5.76195M26.7426 5.7589L26.7457 5.76195M26.7457 5.76195C27.3717 6.37719 27.8562 7.12141 28.1655 7.94286L28.1655 7.94287M26.7457 5.76195L28.1655 7.94287M28.1655 7.94287L28.1673 7.94743M28.1655 7.94287L28.1673 7.94743M28.1673 7.94743C28.4746 8.73995 28.6894 9.65505 28.754 11.0266C28.77 11.3812 28.7832 11.6744 28.7937 11.9699C28.7937 11.9703 28.7938 11.9707 28.7938 11.9712L28.8016 12.2242C28.8016 12.2247 28.8016 12.2252 28.8016 12.2257C28.8252 13.1928 28.8354 14.1602 28.8321 15.1277L28.8321 15.13M28.1673 7.94743L28.8321 15.13M28.8321 15.13L28.8335 16.124M28.8321 15.13L28.8335 16.124M28.8335 16.124V16.1247L28.8335 17.8707L28.8335 17.8724C28.8367 18.8401 28.8266 19.8079 28.803 20.7754C28.803 20.776 28.8029 20.7766 28.8029 20.7771L28.7951 21.0302C28.7951 21.0306 28.7951 21.031 28.7951 21.0314C28.7848 21.3179 28.7721 21.601 28.7567 21.9425L28.7553 21.9739C28.7553 21.9742 28.7553 21.9744 28.7553 21.9747C28.6908 23.3453 28.4736 24.2595 28.167 25.0532L28.1653 25.0578C27.8571 25.8798 27.3727 26.6243 26.746 27.2391L26.7459 27.239L26.7397 27.2454C26.1238 27.8714 25.3791 28.356 24.5573 28.6654L24.5573 28.6654L24.5527 28.6672C23.7599 28.9745 22.8459 29.1894 21.474 29.2539L21.4441 29.2552C21.1019 29.2706 20.8184 29.2833 20.5316 29.2936C20.5311 29.2936 20.5307 29.2936 20.5303 29.2936L20.2773 29.3015C20.2768 29.3015 20.2763 29.3015 20.2758 29.3015C19.3082 29.3251 18.3403 29.3352 17.3725 29.332L17.3701 29.332L16.3761 29.3333H16.3754L14.6308 29.3333L14.6291 29.3333C13.6613 29.3366 12.6935 29.3264 11.726 29.3029C11.7254 29.3028 11.7249 29.3028 11.7243 29.3028L11.4716 29.295C11.4711 29.295 11.4706 29.295 11.4702 29.2949C11.1561 29.2836 10.842 29.2703 10.5281 29.2552L10.5276 29.2552C9.1566 29.1908 8.24208 28.9735 7.44667 28.6668L7.4426 28.6653C6.62108 28.3567 5.87695 27.8722 5.26235 27.2458L5.26241 27.2458L5.25575 27.2392C4.62904 26.6239 4.1441 25.8792 3.83474 25.0572L3.83477 25.0572L3.83297 25.0526C3.52557 24.2598 3.31071 23.3458 3.24624 21.9739L28.8335 16.124ZM13.5266 14.0251C14.1398 13.4119 14.9572 13.0497 15.819 13.0048L16.0093 13.0012C16.4743 12.9927 16.9362 13.0768 17.3683 13.2488C17.8003 13.4208 18.1937 13.6771 18.5256 14.0029C18.8574 14.3286 19.121 14.7172 19.301 15.146C19.481 15.5747 19.5737 16.0351 19.5738 16.5001C19.5739 16.9651 19.4813 17.4254 19.3015 17.8543C19.1216 18.2831 18.8581 18.6718 18.5264 18.9976C18.1947 19.3235 17.8013 19.5799 17.3693 19.7521C16.9374 19.9242 16.4754 20.0085 16.0105 20.0001L16.0105 20H16.0015C15.0732 20 14.183 19.6313 13.5266 18.9749C12.8702 18.3185 12.5015 17.4283 12.5015 16.5C12.5015 15.5717 12.8702 14.6815 13.5266 14.0251ZM22.5001 7.332V7.40874C22.1237 7.51074 21.7787 7.71334 21.5044 7.99888C21.1166 8.40244 20.9001 8.94037 20.9001 9.5C20.9001 10.0596 21.1166 10.5976 21.5044 11.0011C21.8921 11.4047 22.4209 11.6426 22.9801 11.6649L22.9901 11.6653H23.0001C23.5748 11.6653 24.1259 11.4371 24.5322 11.0307C24.9385 10.6244 25.1668 10.0733 25.1668 9.49867C25.1668 8.92403 24.9385 8.37293 24.5322 7.9666C24.1259 7.56027 23.5748 7.332 23.0001 7.332H22.5001ZM16.0036 9.33467C15.0553 9.32172 14.1137 9.49716 13.2337 9.85081C12.3525 10.2049 11.5504 10.7306 10.8742 11.3974C10.198 12.0641 9.66096 12.8586 9.29444 13.7347C8.92792 14.6108 8.73917 15.551 8.73917 16.5007C8.73917 17.4503 8.92792 18.3905 9.29444 19.2666C9.66096 20.1427 10.198 20.9372 10.8742 21.604C11.5504 22.2707 12.3525 22.7964 13.2337 23.1505C14.1137 23.5042 15.0552 23.6796 16.0035 23.6667C17.903 23.6658 19.7245 22.9108 21.0677 21.5676C22.4117 20.2236 23.1668 18.4007 23.1668 16.5C23.1668 14.5993 22.4117 12.7764 21.0677 11.4324C19.7244 10.089 17.9028 9.3356 16.0036 9.33467Z" fill="#EBF4FF" stroke="#333333"/>
</svg>
