<svg width="32" height="33" viewBox="0 0 32 33" fill="none" xmlns="http://www.w3.org/2000/svg">
<path d="M31.2723 10.8599L31.2721 10.858C31.177 9.82937 31.038 8.85618 30.8468 8.1367C30.6875 7.54183 30.3748 6.99918 29.9401 6.56295C29.5054 6.12671 28.9639 5.81215 28.3696 5.6507C27.8572 5.51299 26.9575 5.39846 25.834 5.30772C24.7221 5.21792 23.4273 5.15393 22.1465 5.10844C19.8635 5.02734 17.6389 5.00544 16.602 4.99953V5H16.102H15.7169C13.8183 5.00673 11.9199 5.04063 10.0223 5.10167L9.68245 5.11558L9.67943 5.11571L9.50743 5.1217L9.16657 5.13358L9.16343 5.1337L8.8285 5.14749C8.82818 5.14751 8.82785 5.14752 8.82753 5.14754C6.59159 5.24828 4.53869 5.40793 3.62775 5.65087C3.03343 5.81183 2.49183 6.12613 2.0572 6.56229C1.6224 6.99863 1.30994 7.54159 1.15114 8.13675L31.2723 10.8599ZM31.2723 10.8599L31.292 11.0649M31.2723 10.8599L31.292 11.0649M9.50845 26.3524L9.51097 26.3525L9.67963 26.3603L9.68497 26.3605L10.0192 26.3723C12.6914 26.464 15.2413 26.476 15.856 26.476H16.1392C16.7478 26.475 19.2518 26.4635 21.8914 26.3745C23.2115 26.33 24.5612 26.2663 25.7228 26.1752C26.8969 26.0831 27.8402 25.9657 28.3701 25.8232L9.50845 26.3524ZM9.50845 26.3524L9.16645 26.3384L8.82605 26.3245C8.82572 26.3245 8.8254 26.3245 8.82507 26.3244C6.5877 26.2257 4.53591 26.0678 3.6268 25.8214L3.62652 25.8213M9.50845 26.3524L3.62652 25.8213M3.62652 25.8213C3.03208 25.6606 2.49031 25.3465 2.0555 24.9104C1.62074 24.4744 1.30816 23.9319 1.14908 23.337C0.938926 22.5474 0.793814 21.4463 0.694343 20.3092L0.678555 20.102L0.678527 20.1017M3.62652 25.8213L0.678527 20.1017M0.678527 20.1017L0.662679 19.8957M0.678527 20.1017L0.662679 19.8957M0.662679 19.8957C0.662655 19.8953 0.66263 19.895 0.662605 19.8947C0.56478 18.5512 0.51055 17.205 0.5 15.858M0.662679 19.8957L0.5 15.858M0.5 15.858V15.6163C0.504013 15.1859 0.520058 13.7138 0.626884 12.0914C0.626896 12.0912 0.626908 12.091 0.626919 12.0909L0.640849 11.8859L0.640875 11.8859L0.64117 11.8808L0.646894 11.7816L0.66238 11.5803L0.705978 11.065L0.725708 10.8599L0.725875 10.858C0.821041 9.82907 0.959992 8.85408 1.1511 8.13689L0.5 15.858ZM31.292 11.0649L31.3355 11.5784L31.3358 11.5822L31.3513 11.7835C31.3513 11.7839 31.3513 11.7844 31.3514 11.7849C31.48 13.5939 31.496 15.2905 31.498 15.6633V15.8105C31.496 16.1965 31.478 18.0092 31.3354 19.894C31.3354 19.8941 31.3354 19.8942 31.3354 19.8943L31.3199 20.0989L31.3194 20.104L31.3019 20.3065C31.3019 20.3066 31.3019 20.3067 31.3019 20.3069M31.292 11.0649L31.3019 20.3069M31.3019 20.3069C31.2024 21.4447 31.0572 22.5452 30.8467 23.3377M31.3019 20.3069L30.8467 23.3377M30.8467 23.3377C30.6879 23.9327 30.3755 24.4755 29.9408 24.9117M30.8467 23.3377L29.9408 24.9117M29.9408 24.9117C29.5061 25.3479 28.9645 25.6622 28.3701 25.8232L29.9408 24.9117ZM13.0508 10.4854L12.3 10.0502V10.918V20.554V21.4215L13.0506 20.9867L21.3646 16.1707L22.1112 15.7382L21.3648 15.3054L13.0508 10.4854Z" fill="#EBF4FF" stroke="#333333"/>
</svg>
