<svg width="50" height="51" viewBox="0 0 50 51" fill="none" xmlns="http://www.w3.org/2000/svg">
<circle cx="25" cy="25.5" r="24.5" stroke="white"/>
<path d="M33 21.5L25 26.5L17 21.5V19.5L25 24.5L33 19.5M33 17.5H17C15.89 17.5 15 18.39 15 19.5V31.5C15 32.0304 15.2107 32.5391 15.5858 32.9142C15.9609 33.2893 16.4696 33.5 17 33.5H33C33.5304 33.5 34.0391 33.2893 34.4142 32.9142C34.7893 32.5391 35 32.0304 35 31.5V19.5C35 18.9696 34.7893 18.4609 34.4142 18.0858C34.0391 17.7107 33.5304 17.5 33 17.5Z" fill="#99C7FF"/>
</svg>
