<svg width="24" height="25" viewBox="0 0 24 25" fill="none" xmlns="http://www.w3.org/2000/svg">
<path d="M16.001 17.5566L18.0677 15.4892C18.346 15.2142 18.6982 15.0259 19.0814 14.9473C19.4646 14.8686 19.8625 14.903 20.2265 15.0461L22.7453 16.0522C23.1132 16.2016 23.4287 16.4566 23.652 16.7851C23.8753 17.1136 23.9964 17.5009 24 17.8981V22.513C23.9979 22.7833 23.9411 23.0502 23.8331 23.2979C23.7251 23.5456 23.5681 23.7689 23.3715 23.9543C23.175 24.1397 22.943 24.2834 22.6895 24.3767C22.436 24.4701 22.1662 24.5111 21.8965 24.4974C4.24704 23.3991 0.685788 8.44686 0.0122868 2.72441C-0.0189776 2.4434 0.0095878 2.15895 0.0961037 1.88977C0.18262 1.6206 0.325125 1.3728 0.514245 1.16268C0.703366 0.952554 0.934815 0.784873 1.19337 0.670663C1.45192 0.556453 1.73171 0.498302 2.01434 0.500038H6.47052C6.86817 0.501215 7.25637 0.621379 7.5852 0.845073C7.91403 1.06877 8.16845 1.38576 8.31573 1.75529L9.32136 4.27501C9.46922 4.6378 9.50694 5.03614 9.42982 5.42025C9.3527 5.80436 9.16415 6.15723 8.88774 6.43478L6.82111 8.50224C6.82111 8.50224 8.01127 16.5598 16.001 17.5566Z" fill="#99C7FF"/>
</svg>
